<?xml version="1.0" encoding="UTF-8"?>
<svg width="151px" height="28px" viewBox="0 0 151 28" version="1.1" xmlns="http://www.w3.org/2000/svg" xmlns:xlink="http://www.w3.org/1999/xlink">
    <!-- Generator: Sketch 57.1 (83088) - https://sketch.com -->
    <title>Atoms / Logo / Horizontal / Black</title>
    <desc>Created with Sketch.</desc>
    <g id="Atoms-/-Logo-/-Horizontal-/-Black" stroke="none" stroke-width="1" fill="none" fill-rule="evenodd">
        <g fill="#000000">
            <g id="Symbol" transform="translate(0.000058, 0.000112)">
                <path d="M-2.7533531e-14,12.3100274 C0.134267125,10.9789202 0.465613036,9.704325 0.96464879,8.51309881 L7.16398671,8.51309881 C6.29614855,9.59801548 5.69684464,10.8949917 5.46173311,12.3100274 L-2.7533531e-14,12.3100274 Z" id="Fill-1"></path>
                <path d="M0.910538562,18.6748905 C0.442044257,17.5217119 0.129714721,16.2918786 5.76253757e-05,15.0100095 L5.46121448,15.0100095 C5.68768221,16.3685333 6.24895337,17.6173905 7.06089491,18.6748905 L0.910538562,18.6748905 Z" id="Fill-3"></path>
                <path d="M25.6111949,21.3752643 C25.1190742,22.072431 24.5618368,22.7231571 23.9487028,23.3196095 C21.4028137,25.7910262 17.8853607,27.3202048 14.0008342,27.3202048 C10.1151551,27.3202048 6.5982784,25.7910262 4.0523893,23.3196095 C3.43867905,22.7231571 2.88201792,22.072431 2.38989721,21.3752643 L10.5761581,21.3752643 C11.6260924,21.8156095 12.7837862,22.0595619 14.0008342,22.0595619 C15.2167296,22.0595619 16.3749996,21.8156095 17.4255102,21.3752643 L25.6111949,21.3752643 Z" id="Fill-5"></path>
                <path d="M14.0006037,-2.84661184e-13 C17.8851302,-2.84661184e-13 21.4031594,1.52917857 23.9490485,4.00059524 C24.5235735,4.559 25.0479644,5.16552381 25.517035,5.81289286 L17.0910526,5.81289286 C16.1315901,5.45647619 15.0897233,5.26064286 14.0006037,5.26064286 C12.9114841,5.26064286 11.869041,5.45647619 10.9095785,5.81289286 L2.48359607,5.81289286 C2.95266663,5.16552381 3.4776338,4.559 4.0521588,4.00059524 C6.5980479,1.52917857 10.1155008,-2.84661184e-13 14.0006037,-2.84661184e-13" id="Fill-7"></path>
            </g>
            <g id="Type" transform="translate(33.077311, 4.660218)">
                <path d="M7.75291805,11.3122845 C7.1242252,11.922725 6.30709737,12.145975 5.48996955,12.145975 C3.89778041,12.145975 2.55626167,11.1293202 2.55626167,9.21630833 C2.55626167,7.46667738 3.81364737,6.24579643 5.53203607,6.24579643 C6.24428571,6.24579643 6.99860188,6.51045119 7.60597334,7.03920119 L9.22006012,5.39140357 C8.08829774,4.31320119 6.95711161,3.90642738 5.48996955,3.90642738 C2.49345001,3.90642738 -1.31450406e-13,5.65605833 -1.31450406e-13,9.21630833 C-1.31450406e-13,12.7771179 2.49345001,14.5267488 5.48996955,14.5267488 C7.01992327,14.5267488 8.27673272,14.0785702 9.4707305,12.9393798 L7.75291805,11.3122845 Z" id="Fill-9"></path>
                <polygon id="Fill-11" points="11.0176261 14.2219762 13.5531426 14.2219762 13.5531426 4.4408921e-15 11.0176261 4.4408921e-15"></polygon>
                <path d="M21.0922705,6.24596429 C22.8106592,6.24596429 23.9003551,7.71079762 23.9003551,9.21647619 C23.9003551,10.7422976 22.9576039,12.1662857 21.0922705,12.1662857 C19.2280896,12.1662857 18.2847622,10.7422976 18.2847622,9.21647619 C18.2847622,7.71079762 19.2488348,6.24596429 21.0922705,6.24596429 M21.0715254,3.98772619 C17.7822689,3.98772619 15.7285006,6.34779762 15.7285006,9.21647619 C15.7285006,12.1058571 17.7402024,14.4452262 21.0922705,14.4452262 C24.4449149,14.4452262 26.4779381,12.1058571 26.4779381,9.21647619 C26.4779381,6.34779762 24.3613581,3.98772619 21.0715254,3.98772619" id="Fill-13"></path>
                <path d="M36.8250354,5.22880595 C35.6310376,4.21159167 34.4151421,3.90609167 32.8022079,3.90609167 C30.9155531,3.90609167 28.4434245,4.72019881 28.4434245,7.03886548 C28.4434245,9.31836548 30.7691846,10.0099369 32.7180748,10.152056 C34.1846406,10.2337464 34.7718432,10.518544 34.7718432,11.210675 C34.7718432,11.9430917 33.8705823,12.431556 32.9065098,12.410294 C31.7540023,12.3901512 30.0776801,11.8004131 29.3446853,11.0070083 L28.0872996,12.7773417 C29.595932,14.3026036 31.2301876,14.5672583 32.8650195,14.5672583 C35.8194726,14.5672583 37.3073598,13.0414369 37.3073598,11.2711036 C37.3073598,8.60609167 34.8346549,8.179175 32.8857647,8.05663929 C31.5655673,7.97550833 30.9576196,7.60902024 30.9576196,6.95773452 C30.9576196,6.32771071 31.628379,5.96122262 32.8442744,5.96122262 C33.8285158,5.96122262 34.666965,6.18503214 35.3999598,6.85646071 L36.8250354,5.22880595 Z" id="Fill-14"></path>
                <path d="M41.5774001,8.03627262 C41.9542701,6.73426071 43.0860324,6.08353452 44.4690414,6.08353452 C45.9356073,6.08353452 46.9838128,6.73426071 47.1515027,8.03627262 L41.5774001,8.03627262 Z M49.6028862,10.090844 C50.0010775,5.96099881 47.8424309,3.885725 44.3854847,3.885725 C41.0328403,3.885725 38.8955151,6.08353452 38.8955151,9.13461786 C38.8955151,12.3496417 41.0120952,14.4859036 44.5739196,14.4859036 C46.1453636,14.4859036 47.926564,13.9571536 49.0162598,12.8582488 L47.3814279,11.2915821 C46.7948016,11.8818798 45.5587373,12.2276655 44.6154099,12.2276655 C42.8140407,12.2276655 41.7030234,11.3324274 41.5353336,10.090844 L49.6028862,10.090844 Z" id="Fill-15"></path>
                <path d="M51.9877123,4.19116905 L51.9877123,14.2217524 L54.543974,14.2217524 L54.543974,8.93145476 C54.543974,7.07999048 55.7800383,6.38841905 57.1209808,6.38841905 C57.9588538,6.38841905 58.4411782,6.61222857 58.9649928,7.03914524 L60.1169241,4.88274048 C59.5521954,4.3332881 58.5253112,3.92651429 57.4563605,3.92651429 C56.4087312,3.92651429 55.3403567,4.1100381 54.543974,5.3510619 L54.3549628,4.19116905 L51.9877123,4.19116905 Z" id="Fill-16"></path>
                <path d="M69.6686759,5.22880595 C68.4741018,4.21159167 67.2582064,3.90609167 65.6458484,3.90609167 C63.7591936,3.90609167 61.2864887,4.72019881 61.2864887,7.03886548 C61.2864887,9.31836548 63.6128251,10.0099369 65.5617154,10.152056 C67.0282812,10.2337464 67.6154837,10.518544 67.6154837,11.210675 C67.6154837,11.9430917 66.7142229,12.431556 65.7495741,12.410294 C64.5976428,12.3901512 62.9213206,11.8004131 62.1883259,11.0070083 L60.9309402,12.7773417 C62.4395725,14.3026036 64.0738282,14.5672583 65.7086601,14.5672583 C68.6631131,14.5672583 70.1510003,13.0414369 70.1510003,11.2711036 C70.1510003,8.60609167 67.6777192,8.179175 65.7294052,8.05663929 C64.4092078,7.97550833 63.8012601,7.60902024 63.8012601,6.95773452 C63.8012601,6.32771071 64.4720195,5.96122262 65.6879149,5.96122262 C66.6721563,5.96122262 67.5106056,6.18503214 68.2436003,6.85646071 L69.6686759,5.22880595 Z" id="Fill-17"></path>
                <path d="M72.1374622,12.9394917 C72.1374622,14.8726464 75.1547269,14.8726464 75.1547269,12.9394917 C75.1547269,11.0068964 72.1374622,11.0068964 72.1374622,12.9394917" id="Fill-18"></path>
                <path d="M84.5167759,11.3122845 C83.8880831,11.922725 83.0709553,12.145975 82.2538274,12.145975 C80.6616383,12.145975 79.3201196,11.1293202 79.3201196,9.21630833 C79.3201196,7.46667738 80.5775053,6.24579643 82.2953177,6.24579643 C83.0081436,6.24579643 83.7618835,6.51045119 84.3698312,7.03920119 L85.983918,5.39140357 C84.8521556,4.31320119 83.7203933,3.90642738 82.2538274,3.90642738 C79.2573079,3.90642738 76.7644341,5.65605833 76.7644341,9.21630833 C76.7644341,12.7771179 79.2573079,14.5267488 82.2538274,14.5267488 C83.7832049,14.5267488 85.0405906,14.0785702 86.2345884,12.9393798 L84.5167759,11.3122845 Z" id="Fill-19"></path>
                <path d="M92.8730317,6.24596429 C94.5914204,6.24596429 95.6816925,7.71079762 95.6816925,9.21647619 C95.6816925,10.7422976 94.7377888,12.1662857 92.8730317,12.1662857 C91.0082745,12.1662857 90.0655234,10.7422976 90.0655234,9.21647619 C90.0655234,7.71079762 91.0290197,6.24596429 92.8730317,6.24596429 M92.8522865,3.98772619 C89.5624538,3.98772619 87.5092617,6.34779762 87.5092617,9.21647619 C87.5092617,12.1058571 89.5203873,14.4452262 92.8730317,14.4452262 C96.225676,14.4452262 98.2592755,12.1058571 98.2592755,9.21647619 C98.2592755,6.34779762 96.1421192,3.98772619 92.8522865,3.98772619" id="Fill-20"></path>
                <path d="M109.862952,14.2219202 L109.862952,8.85049167 C109.862952,7.52777738 110.72157,6.36788452 112.105731,6.36788452 C113.488164,6.36788452 114.053469,7.48693214 114.053469,8.80964643 L114.053469,14.2219202 L116.610307,14.2219202 L116.610307,8.80964643 C116.610307,5.79828929 115.16391,4.04865833 112.230202,4.04865833 C110.889836,4.04865833 109.695262,4.45543214 108.773256,5.87997976 C108.18663,4.49627738 106.950565,4.00837262 105.714501,4.00837262 C104.729107,4.00837262 103.535109,4.37430119 102.989397,5.39151548 L102.801538,4.17119405 L100.433711,4.17119405 L100.433711,14.2219202 L102.989397,14.2219202 L102.989397,8.85049167 C102.989397,7.52777738 103.807101,6.32759881 105.19011,6.32759881 C106.593864,6.32759881 107.30669,7.52777738 107.30669,8.85049167 L107.30669,14.2219202 L109.862952,14.2219202 Z" id="Fill-21"></path>
            </g>
        </g>
    </g>
</svg>