<?xml version="1.0" encoding="UTF-8"?>
<svg width="100px" height="100px" viewBox="0 0 100 100" version="1.1" xmlns="http://www.w3.org/2000/svg" xmlns:xlink="http://www.w3.org/1999/xlink">
    <!-- Generator: Sketch 57.1 (83088) - https://sketch.com -->
    <title>Atoms / Icons / Trainning</title>
    <desc>Created with Sketch.</desc>
    <g id="Atoms-/-Icons-/-Trainning" stroke="none" stroke-width="1" fill="none" fill-rule="evenodd">
        <rect id="Rectangle" fill="#F4F3EE" x="0" y="0" width="100" height="100"></rect>
        <g id="Group-63" transform="translate(20.000000, 28.000000)">
            <path d="M59.8036438,3.41182192 L59.8036438,42.1336027 C59.8036438,42.8441507 59.2287123,43.4190822 58.5181644,43.4190822 L1.53213699,43.4190822 C0.822,43.4190822 0.246657534,42.8441507 0.246657534,42.1336027 L0.246657534,3.41182192 C0.246657534,2.70127397 0.822,2.12634247 1.53213699,2.12634247 L58.5181644,2.12634247 C59.2287123,2.12634247 59.8036438,2.70127397 59.8036438,3.41182192" id="Fill-1" fill="#E1DED4"></path>
            <path d="M19.0063562,43.4189178 L5.48252055,43.4189178" id="Stroke-7" stroke="#212529" stroke-width="1.5" stroke-linecap="round" stroke-linejoin="round"></path>
            <path d="M2.47647945,43.4189178 L1.53209589,43.4189178 C0.821958904,43.4189178 0.246616438,42.8443973 0.246616438,42.1334384 L0.246616438,3.41165753 C0.246616438,2.70152055 0.821958904,2.12617808 1.53209589,2.12617808 L58.5181233,2.12617808 C59.2286712,2.12617808 59.8036027,2.70152055 59.8036027,3.41165753 L59.8036027,42.1334384 C59.8036027,42.8443973 59.2286712,43.4189178 58.5181233,43.4189178 L23.8903151,43.4189178" id="Stroke-9" stroke="#212529" stroke-width="1.5" stroke-linecap="round" stroke-linejoin="round"></path>
            <path d="M29.8987397,6.90858904 L29.8987397,43.419 L29.6743562,43.419 C28.8984658,40.5533836 26.1216164,38.4311918 22.8166849,38.4311918 L4.22038356,38.4311918 C3.22915068,38.4311918 2.42490411,37.6783151 2.42490411,36.7479041 L2.42490411,1.94913699 C2.42490411,1.01831507 3.22915068,0.265849315 4.22038356,0.265849315 L22.8166849,0.265849315 C24.7239452,0.265849315 26.4581918,0.97639726 27.7296986,2.12626027 C29.0669589,3.33735616 29.8987397,5.02968493 29.8987397,6.90858904" id="Fill-11" fill="#FFFFFF"></path>
            <path d="M57.6999041,1.9490137 L57.6999041,36.7481918 C57.6999041,37.6781918 56.8960685,38.4310685 55.9048356,38.4310685 L37.3134658,38.4310685 C34.0126438,38.4310685 31.2357945,40.5536712 30.4599041,43.4188767 L30.2355205,43.4188767 L30.2355205,6.90846575 C30.2355205,5.02956164 31.0677123,3.33723288 32.4000411,2.12654795 C33.671137,0.976684932 35.4057945,0.265726027 37.3134658,0.265726027 L55.9048356,0.265726027 C56.8960685,0.265726027 57.6999041,1.01819178 57.6999041,1.9490137" id="Fill-13" fill="#FFFFFF"></path>
            <path d="M12.4570685,0.265849315 L22.8165205,0.265849315 C24.7241918,0.265849315 26.4580274,0.97639726 27.7295342,2.12626027 C29.0667945,3.33735616 29.8985753,5.02968493 29.8985753,6.90858904 L29.8985753,43.419 L29.6746027,43.419 C28.8987123,40.5533836 26.1214521,38.4311918 22.8165205,38.4311918 L4.22021918,38.4311918 C3.2289863,38.4311918 2.42515068,37.6783151 2.42515068,36.7479041 L2.42515068,1.94913699 C2.42515068,1.01831507 3.2289863,0.265849315 4.22021918,0.265849315 L5.28953425,0.265849315" id="Stroke-15" stroke="#212529" stroke-width="1.5" stroke-linecap="round" stroke-linejoin="round"></path>
            <path d="M8.61517808,0.265849315 L9.24558904,0.265849315" id="Stroke-17" stroke="#212529" stroke-width="1.5" stroke-linecap="round" stroke-linejoin="round"></path>
            <path d="M40.8389178,0.265849315 L55.9046712,0.265849315 C56.8959041,0.265849315 57.6997397,1.01831507 57.6997397,1.94913699 L57.6997397,36.7479041 C57.6997397,37.6783151 56.8959041,38.4311918 55.9046712,38.4311918 L37.3133014,38.4311918 C34.0128904,38.4311918 31.2360411,40.5533836 30.4597397,43.419 L30.2353562,43.419 L30.2353562,6.90858904 C30.2353562,5.02968493 31.0679589,3.33735616 32.3998767,2.12626027 C33.6713836,0.97639726 35.4056301,0.265849315 37.3133014,0.265849315 L38.087137,0.265849315" id="Stroke-19" stroke="#212529" stroke-width="1.5" stroke-linecap="round" stroke-linejoin="round"></path>
            <path d="M11.431274,31.7033836 L17.361,31.7033836" id="Stroke-21" stroke="#212529" stroke-width="1.5" stroke-linecap="round" stroke-linejoin="round"></path>
            <path d="M7.50953425,31.7033836 L8.5459726,31.7033836" id="Stroke-23" stroke="#212529" stroke-width="1.5" stroke-linecap="round" stroke-linejoin="round"></path>
            <path d="M18.6776712,26.9990137 L24.5572603,26.9990137" id="Stroke-25" stroke="#212529" stroke-width="1.5" stroke-linecap="round" stroke-linejoin="round"></path>
            <path d="M7.62390411,26.9990137 L16.2006164,26.9990137" id="Stroke-27" stroke="#212529" stroke-width="1.5" stroke-linecap="round" stroke-linejoin="round"></path>
            <path d="M7.73827397,22.2950959 L20.287726,22.2950959" id="Stroke-29" stroke="#212529" stroke-width="1.5" stroke-linecap="round" stroke-linejoin="round"></path>
            <path d="M7.73827397,12.9453699 L20.287726,12.9453699" id="Stroke-31" stroke="#212529" stroke-width="1.5" stroke-linecap="round" stroke-linejoin="round"></path>
            <path d="M16.6959041,17.590726 L24.7860411,17.590726" id="Stroke-33" stroke="#212529" stroke-width="1.5" stroke-linecap="round" stroke-linejoin="round"></path>
            <path d="M7.85264384,17.590726 L14.0946986,17.590726" id="Stroke-35" stroke="#212529" stroke-width="1.5" stroke-linecap="round" stroke-linejoin="round"></path>
            <path d="M20.9206849,7.95443836 L24.7857534,7.95443836" id="Stroke-37" stroke="#212529" stroke-width="1.5" stroke-linecap="round" stroke-linejoin="round"></path>
            <path d="M7.85264384,7.95443836 L17.8446986,7.95443836" id="Stroke-39" stroke="#212529" stroke-width="1.5" stroke-linecap="round" stroke-linejoin="round"></path>
            <path d="M39.7412877,25.7954384 L45.408,25.7954384" id="Stroke-41" stroke="#212529" stroke-width="1.5" stroke-linecap="round" stroke-linejoin="round"></path>
            <path d="M35.9933014,25.7954384 L36.9841233,25.7954384" id="Stroke-43" stroke="#212529" stroke-width="1.5" stroke-linecap="round" stroke-linejoin="round"></path>
            <path d="M46.6666027,21.1665616 L52.2856438,21.1665616" id="Stroke-45" stroke="#212529" stroke-width="1.5" stroke-linecap="round" stroke-linejoin="round"></path>
            <path d="M36.1024521,21.1665616 L44.2990274,21.1665616" id="Stroke-47" stroke="#212529" stroke-width="1.5" stroke-linecap="round" stroke-linejoin="round"></path>
            <path d="M36.2120548,16.5376438 L48.2054795,16.5376438" id="Stroke-49" stroke="#212529" stroke-width="1.5" stroke-linecap="round" stroke-linejoin="round"></path>
            <path d="M44.7723288,11.908726 L52.5041096,11.908726" id="Stroke-51" stroke="#212529" stroke-width="1.5" stroke-linecap="round" stroke-linejoin="round"></path>
            <path d="M36.3212055,11.908726 L42.2870959,11.908726" id="Stroke-53" stroke="#212529" stroke-width="1.5" stroke-linecap="round" stroke-linejoin="round"></path>
            <path d="M48.8100822,7.48689041 L52.5041918,7.48689041" id="Stroke-55" stroke="#212529" stroke-width="1.5" stroke-linecap="round" stroke-linejoin="round"></path>
            <path d="M36.3212055,7.48689041 L45.8706575,7.48689041" id="Stroke-57" stroke="#212529" stroke-width="1.5" stroke-linecap="round" stroke-linejoin="round"></path>
            <path d="M37.9485616,41.1088767 L36.9474658,39.9988767 L35.7626712,41.1688767 C35.6184247,41.3110685 35.3517123,41.2210685 35.3517123,41.0303836 L35.3517123,0.769150685 C35.3517123,0.480657534 35.585137,0.246410959 35.8736301,0.246410959 L38.3685616,0.246410959 L38.3685616,40.9798356 C38.3685616,41.176274 38.0874658,41.2629863 37.9485616,41.1088767" id="Fill-59" fill="#E1DED4"></path>
            <path d="M37.9485616,41.1088767 L36.9474658,39.9988767 L35.7626712,41.1688767 C35.6184247,41.3110685 35.3517123,41.2210685 35.3517123,41.0303836 L35.3517123,0.769150685 C35.3517123,0.480657534 35.585137,0.246410959 35.8736301,0.246410959 L38.3685616,0.246410959 L38.3685616,40.9798356 C38.3685616,41.176274 38.0874658,41.2629863 37.9485616,41.1088767 Z" id="Stroke-61" stroke="#212529" stroke-width="1.5" stroke-linecap="round" stroke-linejoin="round"></path>
        </g>
    </g>
</svg>