<?xml version="1.0" encoding="UTF-8"?>
<svg width="100px" height="100px" viewBox="0 0 100 100" version="1.1" xmlns="http://www.w3.org/2000/svg" xmlns:xlink="http://www.w3.org/1999/xlink">
    <!-- Generator: Sketch 57.1 (83088) - https://sketch.com -->
    <title>Atoms / Icons / Events</title>
    <desc>Created with Sketch.</desc>
    <g id="Atoms-/-Icons-/-Events" stroke="none" stroke-width="1" fill="none" fill-rule="evenodd">
        <rect id="Rectangle" fill="#212529" x="0" y="0" width="100" height="100"></rect>
        <g id="Group-67" transform="translate(20.000000, 24.000000)">
            <path d="M14.2712466,12.9005342 L14.4163151,12.9005342" id="Stroke-9" stroke="#FFFFFF" stroke-width="1.5" stroke-linecap="round" stroke-linejoin="round"></path>
            <path d="M19.0436301,12.9005342 L45.9860959,12.9005342 C47.185274,12.9005342 48.1576027,13.8724521 48.1576027,15.0720411 L48.1576027,49.5646438 C48.1576027,50.7638219 47.185274,51.7361507 45.9860959,51.7361507 L2.37719178,51.7361507 C1.17760274,51.7361507 0.205684932,50.7638219 0.205684932,49.5646438 L0.205684932,15.0720411 C0.205684932,13.8724521 1.17760274,12.9005342 2.37719178,12.9005342 L10.105274,12.9005342" id="Stroke-11" stroke="#FFFFFF" stroke-width="1.5" stroke-linecap="round" stroke-linejoin="round"></path>
            <path d="M0.206958904,20.7263836 L0.205726027,20.7263836 L0.205726027,15.072 C0.205726027,13.872411 1.17764384,12.9004932 2.37723288,12.9004932 L8.196,12.9004932" id="Stroke-17" stroke="#FFFFFF" stroke-width="1.5" stroke-linecap="round" stroke-linejoin="round"></path>
            <path d="M3.56864384,20.7263836 L3.39563014,20.7263836" id="Stroke-19" stroke="#FFFFFF" stroke-width="1.5" stroke-linecap="round" stroke-linejoin="round"></path>
            <path d="M11.4613562,20.7263836 L6.10861644,20.7263836" id="Stroke-21" stroke="#FFFFFF" stroke-width="1.5" stroke-linecap="round" stroke-linejoin="round"></path>
            <path d="M18.3410959,12.9005342 L45.9863014,12.9005342 C47.1854795,12.9005342 48.1578082,13.8724521 48.1578082,15.0720411 L48.1578082,20.7264247 L14.9256164,20.7264247" id="Stroke-23" stroke="#FFFFFF" stroke-width="1.5" stroke-linecap="round" stroke-linejoin="round"></path>
            <path d="M8.19616438,12.9005342 L12.4783562,12.9005342" id="Stroke-25" stroke="#FFFFFF" stroke-width="1.5" stroke-linecap="round" stroke-linejoin="round"></path>
            <path d="M6.83326027,27.5188356 L6.83326027,26.9163699 C6.83326027,26.6097945 7.08189041,26.3611644 7.38928767,26.3611644 L10.3383288,26.3611644 C10.6453151,26.3611644 10.8943562,26.6097945 10.8943562,26.9163699 L10.8943562,29.8662329 C10.8943562,30.1728082 10.6453151,30.4214384 10.3383288,30.4214384 L7.35805479,30.4214384 C7.06832877,30.4214384 6.83326027,30.1867808 6.83326027,29.8970548 L6.83326027,28.7225342" id="Fill-27" fill="#E1DED4"></path>
            <path d="M18.1480685,30.4216438 L15.1986164,30.4216438 C14.8916301,30.4216438 14.643,30.1730137 14.643,29.8660274 L14.643,26.9165753 C14.643,26.61 14.8916301,26.3609589 15.1986164,26.3609589 L18.1480685,26.3609589 C18.4550548,26.3609589 18.7036849,26.61 18.7036849,26.9165753 L18.7036849,29.8660274 C18.7036849,30.1730137 18.4550548,30.4216438 18.1480685,30.4216438" id="Fill-29" fill="#E1DED4"></path>
            <path d="M25.9574795,30.4216438 L23.0080274,30.4216438 C22.7010411,30.4216438 22.452411,30.1730137 22.452411,29.8660274 L22.452411,26.9165753 C22.452411,26.61 22.7010411,26.3609589 23.0080274,26.3609589 L25.9574795,26.3609589 C26.2644658,26.3609589 26.5130959,26.61 26.5130959,26.9165753 L26.5130959,29.8660274 C26.5130959,30.1730137 26.2644658,30.4216438 25.9574795,30.4216438" id="Fill-31" fill="#E1DED4"></path>
            <path d="M33.7669315,30.4216438 L30.8174795,30.4216438 C30.5104932,30.4216438 30.261863,30.1730137 30.261863,29.8660274 L30.261863,26.9165753 C30.261863,26.61 30.5104932,26.3609589 30.8174795,26.3609589 L33.7669315,26.3609589 C34.0739178,26.3609589 34.3229589,26.61 34.3229589,26.9165753 L34.3229589,29.8660274 C34.3229589,30.1730137 34.0739178,30.4216438 33.7669315,30.4216438" id="Fill-33" fill="#E1DED4"></path>
            <path d="M41.5763425,30.4216438 L38.6268904,30.4216438 C38.3199041,30.4216438 38.071274,30.1730137 38.071274,29.8660274 L38.071274,26.9165753 C38.071274,26.61 38.3199041,26.3609589 38.6268904,26.3609589 L41.5763425,26.3609589 C41.8833288,26.3609589 42.1323699,26.61 42.1323699,26.9165753 L42.1323699,29.8660274 C42.1323699,30.1730137 41.8833288,30.4216438 41.5763425,30.4216438" id="Fill-35" fill="#E1DED4"></path>
            <path d="M10.3384521,38.1736849 L7.389,38.1736849 C7.0820137,38.1736849 6.83338356,37.9250548 6.83338356,37.6176575 L6.83338356,34.6686164 C6.83338356,34.3616301 7.0820137,34.112589 7.389,34.112589 L10.3384521,34.112589 C10.6454384,34.112589 10.8944795,34.3616301 10.8944795,34.6686164 L10.8944795,37.6176575 C10.8944795,37.9250548 10.6454384,38.1736849 10.3384521,38.1736849" id="Fill-37" fill="#E1DED4"></path>
            <path d="M18.1480685,38.1736849 L15.1986164,38.1736849 C14.8916301,38.1736849 14.643,37.9250548 14.643,37.6176575 L14.643,34.6686164 C14.643,34.3616301 14.8916301,34.112589 15.1986164,34.112589 L18.1480685,34.112589 C18.4550548,34.112589 18.7036849,34.3616301 18.7036849,34.6686164 L18.7036849,37.6176575 C18.7036849,37.9250548 18.4550548,38.1736849 18.1480685,38.1736849" id="Fill-39" fill="#E1DED4"></path>
            <path d="M26.513137,36.8553288 L26.513137,37.6176575 C26.513137,37.9250548 26.2645068,38.1736849 25.9575205,38.1736849 L23.0080685,38.1736849 C22.7010822,38.1736849 22.4524521,37.9250548 22.4524521,37.6176575 L22.4524521,34.6686164 C22.4524521,34.3616301 22.7010822,34.112589 23.0080685,34.112589 L25.9949178,34.112589 C26.2813562,34.112589 26.513137,34.3451918 26.513137,34.6312192 L26.513137,36.8553288 Z" id="Fill-41" fill="#E1DED4"></path>
            <path d="M33.7669315,38.1736849 L30.8174795,38.1736849 C30.5104932,38.1736849 30.261863,37.9250548 30.261863,37.6176575 L30.261863,34.6686164 C30.261863,34.3616301 30.5104932,34.112589 30.8174795,34.112589 L33.7669315,34.112589 C34.0739178,34.112589 34.3229589,34.3616301 34.3229589,34.6686164 L34.3229589,37.6176575 C34.3229589,37.9250548 34.0739178,38.1736849 33.7669315,38.1736849" id="Fill-43" fill="#E1DED4"></path>
            <path d="M41.5763425,38.1736849 L38.6268904,38.1736849 C38.3199041,38.1736849 38.071274,37.9250548 38.071274,37.6176575 L38.071274,34.6686164 C38.071274,34.3616301 38.3199041,34.112589 38.6268904,34.112589 L41.5763425,34.112589 C41.8833288,34.112589 42.1323699,34.3616301 42.1323699,34.6686164 L42.1323699,37.6176575 C42.1323699,37.9250548 41.8833288,38.1736849 41.5763425,38.1736849" id="Fill-45" fill="#E1DED4"></path>
            <path d="M10.3384521,45.925726 L7.389,45.925726 C7.0820137,45.925726 6.83338356,45.6770959 6.83338356,45.3696986 L6.83338356,42.4206575 C6.83338356,42.1136712 7.0820137,41.8646301 7.389,41.8646301 L10.3384521,41.8646301 C10.6454384,41.8646301 10.8944795,42.1136712 10.8944795,42.4206575 L10.8944795,45.3696986 C10.8944795,45.6770959 10.6454384,45.925726 10.3384521,45.925726" id="Fill-47" fill="#E1DED4"></path>
            <path d="M18.1480685,45.925726 L15.1986164,45.925726 C14.8916301,45.925726 14.643,45.6770959 14.643,45.3696986 L14.643,42.4206575 C14.643,42.1136712 14.8916301,41.8646301 15.1986164,41.8646301 L18.1480685,41.8646301 C18.4550548,41.8646301 18.7036849,42.1136712 18.7036849,42.4206575 L18.7036849,45.3696986 C18.7036849,45.6770959 18.4550548,45.925726 18.1480685,45.925726" id="Fill-49" fill="#E1DED4"></path>
            <path d="M25.9574795,45.925726 L23.0080274,45.925726 C22.7010411,45.925726 22.452411,45.6770959 22.452411,45.3696986 L22.452411,42.4206575 C22.452411,42.1136712 22.7010411,41.8646301 23.0080274,41.8646301 L25.9574795,41.8646301 C26.2644658,41.8646301 26.5130959,42.1136712 26.5130959,42.4206575 L26.5130959,45.3696986 C26.5130959,45.6770959 26.2644658,45.925726 25.9574795,45.925726" id="Fill-51" fill="#E1DED4"></path>
            <path d="M30.2617397,42.378 L30.2617397,45.3697808 C30.2617397,45.6767671 30.5103699,45.9258082 30.8177671,45.9258082 L33.7668082,45.9258082 C34.0737945,45.9258082 34.3228356,45.6767671 34.3228356,45.3697808 L34.3228356,42.378 C34.3228356,42.0944384 34.0931096,41.8647123 33.8095479,41.8647123 L30.7750274,41.8647123 C30.4914658,41.8647123 30.2617397,42.0944384 30.2617397,42.378" id="Fill-53" fill="#E1DED4"></path>
            <path d="M39.7681644,2.30387671 C41.7872055,0.97730137 44.2032329,0.205520548 46.7992603,0.205520548 C53.8796712,0.205520548 59.6195342,5.9449726 59.6195342,13.0257945 C59.6195342,20.1057945 53.8796712,25.8456575 46.7992603,25.8456575 C39.7192603,25.8456575 33.9793973,20.1057945 33.9793973,13.0257945 C33.9793973,8.54182192 36.281589,4.59538356 39.7681644,2.30387671" id="Fill-55" fill="#212529"></path>
            <path d="M42.7640548,0.843452055 C42.8750137,0.813452055 42.9859726,0.781808219 43.0969315,0.748520548 C44.2689863,0.39509589 45.512137,0.205232877 46.7992603,0.205232877 C49.6533699,0.205232877 52.2892603,1.13810959 54.4196712,2.7149589" id="Stroke-57" stroke="#FFFFFF" stroke-width="1.5" stroke-linecap="round" stroke-linejoin="round"></path>
            <path d="M59.4811233,11.1350959 C59.5723562,11.7519452 59.6192055,12.3831781 59.6192055,13.0259178 C59.6192055,20.1059178 53.8797534,25.8457808 46.7993425,25.8457808 C39.7193425,25.8457808 33.9794795,20.1059178 33.9794795,13.0259178 C33.9794795,9.054 35.7856438,5.50372603 38.6216712,3.15221918" id="Stroke-59" stroke="#FFFFFF" stroke-width="1.5" stroke-linecap="round" stroke-linejoin="round"></path>
            <path d="M57.3207945,5.69868493 C57.4675068,5.90909589 57.6080548,6.12361644 57.7420274,6.34265753" id="Stroke-61" stroke="#FFFFFF" stroke-width="1.5" stroke-linecap="round" stroke-linejoin="round"></path>
            <polyline id="Stroke-63" stroke="#FFFFFF" stroke-width="1.5" stroke-linecap="round" stroke-linejoin="round" points="53.8647534 17.8312192 46.4514658 13.5946438 47.6999589 7.35258904"></polyline>
            <path d="M47.7,13.3869452 C47.7,13.9610548 47.2343836,14.4270822 46.6594521,14.4270822 C46.0849315,14.4270822 45.6193151,13.9610548 45.6193151,13.3869452 C45.6193151,12.8124247 46.0849315,12.3463973 46.6594521,12.3463973 C47.2343836,12.3463973 47.7,12.8124247 47.7,13.3869452 Z" id="Stroke-65" stroke="#FFFFFF" stroke-width="1.5" stroke-linecap="round" stroke-linejoin="round"></path>
        </g>
    </g>
</svg>