<?xml version="1.0" encoding="UTF-8"?>
<svg width="100px" height="100px" viewBox="0 0 100 100" version="1.1" xmlns="http://www.w3.org/2000/svg" xmlns:xlink="http://www.w3.org/1999/xlink">
    <!-- Generator: Sketch 57.1 (83088) - https://sketch.com -->
    <title>Atoms / Icons / EasyScale</title>
    <desc>Created with Sketch.</desc>
    <g id="Atoms-/-Icons-/-EasyScale" stroke="none" stroke-width="1" fill="none" fill-rule="evenodd">
        <rect id="Rectangle" fill="#FFFFFF" x="0" y="0" width="100" height="100"></rect>
        <g id="Group-31" transform="translate(23.000000, 20.000000)">
            <path d="M49.7427123,11.8160137 L44.5523014,1.30121918 C44.0895616,0.364232877 42.9553151,-0.0200136986 42.0191507,0.44190411 L31.5035342,5.63272603 C30.5669589,6.09464384 30.1823014,7.22889041 30.6446301,8.16587671 C31.1073699,9.10286301 32.2416164,9.48710959 33.1781918,9.02478082 L39.6117534,5.84889041 C32.8638082,23.2250548 10.9305205,33.7213562 1.70736986,35.8805342 C0.690246575,36.1180685 0.0586027397,37.1356027 0.296958904,38.153137 C0.500794521,39.0251918 1.27791781,39.6140959 2.13641096,39.6140959 C2.27983562,39.6140959 2.42449315,39.5976575 2.56956164,39.5635479 C12.8439452,37.1586164 35.8999726,26.1087534 43.1883288,7.08423288 L46.3506575,13.4902603 C46.6802466,14.1580685 47.3505205,14.5451918 48.0479178,14.5451918 C48.3294247,14.5451918 48.6146301,14.4819041 48.8838082,14.3491644 C49.8207945,13.8868356 50.2050411,12.7521781 49.7427123,11.8160137" id="Fill-1" fill="#FFFFFF"></path>
            <path d="M49.7427123,11.8160137 L44.5523014,1.30121918 C44.0895616,0.364232877 42.9553151,-0.0200136986 42.0191507,0.44190411 L31.5035342,5.63272603 C30.5669589,6.09464384 30.1823014,7.22889041 30.6446301,8.16587671 C31.1073699,9.10286301 32.2416164,9.48710959 33.1781918,9.02478082 L39.6117534,5.84889041 C32.8638082,23.2250548 10.9305205,33.7213562 1.70736986,35.8805342 C0.690246575,36.1180685 0.0586027397,37.1356027 0.296958904,38.153137 C0.500794521,39.0251918 1.27791781,39.6140959 2.13641096,39.6140959 C2.27983562,39.6140959 2.42449315,39.5976575 2.56956164,39.5635479 C12.8439452,37.1586164 35.8999726,26.1087534 43.1883288,7.08423288 L46.3506575,13.4902603 C46.6802466,14.1580685 47.3505205,14.5451918 48.0479178,14.5451918 C48.3294247,14.5451918 48.6146301,14.4819041 48.8838082,14.3491644 C49.8207945,13.8868356 50.2050411,12.7521781 49.7427123,11.8160137" id="Fill-3" fill="#FFFFFF"></path>
            <path d="M9.9599589,59.7862603 L1.91215068,59.7862603 C1.15393151,59.7862603 0.539547945,59.1718767 0.539547945,58.4136575 L0.539547945,49.5262603 C0.539547945,48.7680411 1.15393151,48.1536575 1.91215068,48.1536575 L9.9599589,48.1536575 C10.7181781,48.1536575 11.3325616,48.7680411 11.3325616,49.5262603 L11.3325616,58.4136575 C11.3325616,59.1718767 10.7181781,59.7862603 9.9599589,59.7862603" id="Fill-5" fill="#E1DED4"></path>
            <path d="M27.7698493,59.7862603 L19.7220411,59.7862603 C18.9638219,59.7862603 18.3494384,59.1718767 18.3494384,58.4136575 L18.3494384,39.1232466 C18.3494384,38.3650274 18.9638219,37.7506438 19.7220411,37.7506438 L27.7698493,37.7506438 C28.5280685,37.7506438 29.1424521,38.3650274 29.1424521,39.1232466 L29.1424521,58.4136575 C29.1424521,59.1718767 28.5280685,59.7862603 27.7698493,59.7862603" id="Fill-7" fill="#E1DED4"></path>
            <path d="M45.5797808,59.7862603 L37.5319726,59.7862603 C36.7737534,59.7862603 36.1593699,59.1718767 36.1593699,58.4136575 L36.1593699,24.9369452 C36.1593699,24.179137 36.7737534,23.5643425 37.5319726,23.5643425 L45.5797808,23.5643425 C46.338,23.5643425 46.9523836,24.179137 46.9523836,24.9369452 L46.9523836,58.4136575 C46.9523836,59.1718767 46.338,59.7862603 45.5797808,59.7862603" id="Fill-9" fill="#E1DED4"></path>
            <path d="M9.9599589,59.7862603 L1.91215068,59.7862603 C1.15393151,59.7862603 0.539547945,59.1718767 0.539547945,58.4136575 L0.539547945,49.5262603 C0.539547945,48.7680411 1.15393151,48.1536575 1.91215068,48.1536575 L9.9599589,48.1536575 C10.7181781,48.1536575 11.3325616,48.7680411 11.3325616,49.5262603 L11.3325616,58.4136575 C11.3325616,59.1718767 10.7181781,59.7862603 9.9599589,59.7862603 Z" id="Stroke-17" stroke="#212529" stroke-width="1.5" stroke-linecap="round" stroke-linejoin="round"></path>
            <path d="M18.3495205,51.649726 L18.3495205,39.1232877 C18.3495205,38.3650685 18.9639041,37.7506849 19.7221233,37.7506849 L27.7699315,37.7506849 C28.5281507,37.7506849 29.1425342,38.3650685 29.1425342,39.1232877 L29.1425342,58.4136986 C29.1425342,59.1719178 28.5281507,59.7863014 27.7699315,59.7863014 L19.7221233,59.7863014 C18.9639041,59.7863014 18.3495205,59.1719178 18.3495205,58.4136986 L18.3495205,56.3391781" id="Stroke-19" stroke="#212529" stroke-width="1.5" stroke-linecap="round" stroke-linejoin="round"></path>
            <path d="M45.6664521,23.5672603 C46.3843973,23.6116438 46.9523425,24.2083562 46.9523425,24.9369863 L46.9523425,58.4136986 C46.9523425,59.1719178 46.3379589,59.7863014 45.5797397,59.7863014 L37.5319315,59.7863014 C36.7737123,59.7863014 36.1593288,59.1719178 36.1593288,58.4136986 L36.1593288,24.9369863 C36.1593288,24.1791781 36.7737123,23.5643836 37.5319315,23.5643836 L42.4441233,23.5643836" id="Stroke-21" stroke="#212529" stroke-width="1.5" stroke-linecap="round" stroke-linejoin="round"></path>
            <path d="M12.3894247,31.8703151 C11.2227123,32.4362055 10.086411,32.9486712 8.99531507,33.4077123" id="Stroke-23" stroke="#212529" stroke-width="1.5" stroke-linecap="round" stroke-linejoin="round"></path>
            <path d="M23.7297123,25.0598219 C20.792589,27.218589 17.7535479,29.079 14.8320411,30.6303699" id="Stroke-25" stroke="#212529" stroke-width="1.5" stroke-linecap="round" stroke-linejoin="round"></path>
            <path d="M44.9340411,10.620863 L46.3506164,13.4901781 C46.6802055,14.1579863 47.3504795,14.5451096 48.0478767,14.5451096 C48.3293836,14.5451096 48.614589,14.4822329 48.8837671,14.3490822 C49.8207534,13.8867534 50.205,12.7525068 49.7426712,11.8159315 L44.5522603,1.30113699 C44.0895205,0.364150685 42.9556849,-0.0200958904 42.0191096,0.441821918 L31.5034932,5.63264384 C30.5673288,6.09456164 30.1822603,7.22880822 30.644589,8.16579452 C31.1073288,9.10319178 32.2415753,9.4870274 33.1781507,9.02469863 L39.6117123,5.84921918 C37.0206164,12.521137 32.1906164,18.1788082 26.7010274,22.7396301" id="Stroke-27" stroke="#212529" stroke-width="1.5" stroke-linecap="round" stroke-linejoin="round"></path>
            <path d="M5.03527397,34.914411 C3.80527397,35.3290685 2.685,35.6516712 1.70732877,35.8805753 C0.690205479,36.1181096 0.0585616438,37.1356438 0.296917808,38.1531781 C0.500753425,39.0252329 1.27787671,39.614137 2.13636986,39.614137 C2.27979452,39.614137 2.42445205,39.5976986 2.56952055,39.563589 C12.8439041,37.1586575 35.8999315,26.1087945 43.1882877,7.08427397 L43.9008904,8.52838356" id="Stroke-29" stroke="#212529" stroke-width="1.5" stroke-linecap="round" stroke-linejoin="round"></path>
        </g>
    </g>
</svg>