<?xml version="1.0" encoding="UTF-8"?>
<svg width="100px" height="100px" viewBox="0 0 100 100" version="1.1" xmlns="http://www.w3.org/2000/svg" xmlns:xlink="http://www.w3.org/1999/xlink">
    <!-- Generator: Sketch 57.1 (83088) - https://sketch.com -->
    <title>Atoms / Icons / Consulting</title>
    <desc>Created with Sketch.</desc>
    <g id="Atoms-/-Icons-/-Consulting" stroke="none" stroke-width="1" fill="none" fill-rule="evenodd">
        <rect id="Rectangle" fill="#212529" x="0" y="0" width="100" height="100"></rect>
        <g id="Group-65" transform="translate(20.000000, 31.000000)">
            <path d="M40.1430811,27.8213919 C41.3811892,27.336527 42.7952432,26.7539595 43.7082162,26.3745 C44.2887568,26.1328784 44.6665946,25.5661216 44.6665946,24.9369324 L44.6665946,21.9020676" id="Stroke-5" stroke="#FFFFFF" stroke-width="1.5" stroke-linecap="round" stroke-linejoin="round"></path>
            <path d="M52.9719324,17.0329865 C52.9999054,16.9210946 53.0278784,16.649473 52.9999054,16.4216351 C52.9999054,16.4216351 52.9370676,14.088527 49.6557162,13.9616351 C46.3743649,13.8339324 46.0690946,14.4193378 45.051527,13.4779865 C45.5323378,14.2109595 45.0859865,15.8504189 44.0826081,16.8756892" id="Stroke-7" stroke="#FFFFFF" stroke-width="1.5" stroke-linecap="round" stroke-linejoin="round"></path>
            <path d="M52.5672973,20.0834189 C52.5490541,20.2528784 52.517027,20.417473 52.4712162,20.5776081 C52.3662162,20.9570676 52.1789189,21.3089595 51.9271622,21.6113919 C51.8172973,21.7439595 51.6985135,21.8672027 51.5659459,21.9770676 L49.3386486,23.9757162 C48.7759459,24.4285541 47.9663514,24.4147703 47.4174324,23.9481486 L46.5535135,23.3445 L45.0393243,22.2835541 C44.9022973,22.1692297 44.7786486,22.0411216 44.6691892,21.9036892 L44.6643243,21.9036892 C44.6643243,21.8992297 44.6598649,21.8947703 44.6554054,21.8899054 C44.5958108,21.8169324 44.5410811,21.7390946 44.4908108,21.6567973 C44.4587838,21.6113919 44.4263514,21.5611216 44.4036486,21.5108514 C44.3760811,21.4695 44.3533784,21.4281486 44.3351351,21.3823378 C44.2666216,21.2546351 44.2114865,21.1220676 44.1705405,20.9801757 C44.1522973,20.9343649 44.1385135,20.8840946 44.1295946,20.8338243 C44.1109459,20.7786892 44.0971622,20.7190946 44.0882432,20.6599054 C44.07,20.5727432 44.0562162,20.4859865 44.0468919,20.3992297" id="Stroke-9" stroke="#FFFFFF" stroke-width="1.5" stroke-linecap="round" stroke-linejoin="round"></path>
            <path d="M43.4318514,17.052 L43.4318514,17.052 C42.9486081,17.2028108 42.7706351,17.2028108 42.8723919,18.0326757 C42.9741486,18.8621351 42.9992838,19.3903784 43.1265811,19.8930811 C43.2538784,20.3957838 43.7877973,20.2697027 43.7877973,20.2697027" id="Stroke-11" stroke="#FFFFFF" stroke-width="1.5" stroke-linecap="round" stroke-linejoin="round"></path>
            <path d="M51.8814324,21.6658784 L51.8814324,22.0092568 L51.8814324,24.9358784 C51.8814324,25.5670946 52.2612973,26.1342568 52.8418378,26.3718243 C52.9654865,26.4225 53.0931892,26.4772297 53.2350811,26.5368243 L53.2399459,26.5412838 C53.3084595,26.5688514 53.3814324,26.5960135 53.4592703,26.6280405 C53.5918378,26.6831757 53.7292703,26.7423649 53.8752162,26.7975 C53.8800811,26.8019595 53.8845405,26.8068243 53.8938649,26.8068243 C55.0598108,27.2868243 56.5006216,27.8677703 57.5433243,28.2565541 C57.5708919,28.265473 57.5984595,28.2747973 57.6211622,28.2885811 C58.211027,28.5127703 58.6091351,28.7365541 58.8880541,28.9883108 C58.9062973,29.0020946 58.9245405,29.0203378 58.9383243,29.0341216 C58.9565676,29.0523649 58.9748108,29.0706081 58.9885946,29.0843919 C59.1211622,29.2258784 59.2217027,29.3726351 59.2995405,29.5368243 C59.3271081,29.5919595 59.3498108,29.6511486 59.3729189,29.7152027 C59.3911622,29.7703378 59.4094054,29.8299324 59.4231892,29.8891216 C59.4872432,30.0950676 59.5237297,30.3233108 59.5508919,30.579527 C59.5602162,30.6164189 59.5650811,30.6484459 59.5650811,30.6849324 C59.5784595,30.7583108 59.5833243,30.8357432 59.5922432,30.9139865 C59.6011622,30.9820946 59.6104865,31.055473 59.6153514,31.1288514 C59.6198108,31.1835811 59.6287297,31.2383108 59.6335946,31.2930405 C59.6380541,31.3481757 59.6425135,31.4033108 59.6518378,31.4576351 C59.6607568,31.5399324 59.6700811,31.6270946 59.679,31.7138514" id="Stroke-13" stroke="#FFFFFF" stroke-width="1.5" stroke-linecap="round" stroke-linejoin="round"></path>
            <path d="M52.6450946,20.2710811 C52.6450946,20.2710811 52.6588784,20.2759459 52.6864459,20.28 L52.6998243,20.28 C52.7914459,20.2893243 52.9880676,20.2941892 53.1388784,20.1705405 C53.1526622,20.1612162 53.1619865,20.1522973 53.1709054,20.1385135 C53.2305,20.0833784 53.2763108,20.0010811 53.3038784,19.8912162 C53.3083378,19.8685135 53.3127973,19.8458108 53.3176622,19.8231081 C53.3359054,19.7497297 53.3541486,19.6763514 53.3679324,19.6033784 C53.3861757,19.5072973 53.3995541,19.4067568 53.4137432,19.3013514 C53.4453649,19.0682432 53.4729324,18.8168919 53.5049595,18.5237838 C53.5187432,18.372973 53.5369865,18.2083784 53.5596892,18.0344595 C53.5917162,17.7648649 53.5965811,17.5864865 53.5690135,17.4587838 C53.5645541,17.4308108 53.5596892,17.4081081 53.5507703,17.3898649 C53.5507703,17.3854054 53.5507703,17.3805405 53.5463108,17.3805405 C53.5414459,17.3574324 53.5321216,17.3395946 53.5232027,17.3213514 C53.4818514,17.2568919 53.4315811,17.2114865 53.3586081,17.1745946 C53.3403649,17.1656757 53.3221216,17.1612162 53.3038784,17.1522973 L53.3038784,17.1474324 C53.2211757,17.1154054 53.1206351,17.0878378 53.0018514,17.0513514" id="Stroke-15" stroke="#FFFFFF" stroke-width="1.5" stroke-linecap="round" stroke-linejoin="round"></path>
            <path d="M43.5246892,17.0100405 C41.9010405,13.4935541 42.6550946,11.2966622 44.1652297,10.5312568 C43.6714459,9.45774324 43.643473,9.07017568 43.643473,9.07017568 C43.643473,9.07017568 46.7955,9.5967973 47.8791486,9.38355405 C49.2563108,9.11233784 51.3668514,9.43666216 52.1565811,11.2609865 C53.2430676,11.6907162 55.2032027,12.8262568 53.3671216,16.8117973" id="Stroke-17" stroke="#FFFFFF" stroke-width="1.5" stroke-linecap="round" stroke-linejoin="round"></path>
            <path d="M5.33501351,11.3933514 L6.40812162,12.9878108 C7.77028378,15.012 11.8839324,17.0945676 14.8677162,15.5078108 L15.0517703,15.4206486" id="Stroke-23" stroke="#FFFFFF" stroke-width="1.5" stroke-linecap="round" stroke-linejoin="round"></path>
            <path d="M3.22763514,17.1854189 L3.48222973,17.0581216 C4.66722973,16.1804189 5.74560811,15.6809595 6.19195946,14.459473" id="Stroke-25" stroke="#FFFFFF" stroke-width="1.5" stroke-linecap="round" stroke-linejoin="round"></path>
            <path d="M0.568135135,22.8670541 C0.326108108,23.8813784 0.699891892,24.9224595 1.80016216,25.6120541 C2.75043243,26.2075946 3.82718919,26.150027 4.87232432,26.4447568 C5.31178378,26.5688108 5.76543243,26.775973 5.94705405,27.225973 C6.21097297,27.8790811 5.88867568,28.6931351 5.63448649,29.2947568 C10.1304324,29.0725946 7.90475676,25.4219189 6.70272973,24.6204324 C5.45854054,23.790973 3.64232432,23.105027 5.54772973,21.6735405" id="Stroke-27" stroke="#FFFFFF" stroke-width="1.5" stroke-linecap="round" stroke-linejoin="round"></path>
            <path d="M4.25083784,19.8732162 L3.58637838,20.082 C1.88975676,20.6151081 0.828405405,21.7364595 0.56327027,22.8886216" id="Stroke-29" stroke="#FFFFFF" stroke-width="1.5" stroke-linecap="round" stroke-linejoin="round"></path>
            <path d="M17.4627162,27.5517568 C16.5736622,26.2856757 15.2305541,25.3455405 13.548527,25.3455405 C11.5993378,25.3455405 11.4205541,25.2360811 11.4205541,25.2360811 L11.4205541,23.1531081" id="Stroke-31" stroke="#FFFFFF" stroke-width="1.5" stroke-linecap="round" stroke-linejoin="round"></path>
            <path d="M7.45941892,25.2297973 L7.45941892,23.4902027" id="Stroke-33" stroke="#FFFFFF" stroke-width="1.5" stroke-linecap="round" stroke-linejoin="round"></path>
            <path d="M0.202702703,31.238027 C0.202702703,29.5308649 1.0727027,27.4855946 2.58810811,26.3087027 L2.80256757,26.1424865" id="Stroke-35" stroke="#FFFFFF" stroke-width="1.5" stroke-linecap="round" stroke-linejoin="round"></path>
            <path d="M11.115,23.4070541 C10.3045946,23.9867838 9.32432432,24.3346216 8.3472973,23.9251622 C7.77,23.6835405 7.29040541,23.2688108 6.78,22.9161081 C5.38662162,21.9528649 5.13162162,20.7565135 4.57337838,20.040973 C4.00175676,19.3088108 3.20148649,19.5552973 2.85283784,18.5673243 C2.65581081,18.0086757 2.87067568,17.5493514 3.07783784,17.2757027 C3.19743243,17.118 3.14594595,17.1435405 3.12202703,16.9688108 C2.98175676,15.945973 3.04094595,14.9057027 3.36932432,13.9132703 C3.69486486,12.9281351 4.27945946,12.0386757 5.05702703,11.3519189 C5.28445946,11.1512432 5.5272973,10.9675946 5.7822973,10.8042162" id="Stroke-37" stroke="#FFFFFF" stroke-width="1.5" stroke-linecap="round" stroke-linejoin="round"></path>
            <path d="M5.78533784,10.809 C6.75790541,10.1717027 7.91493243,9.83764865 9.07317568,9.83764865 C11.3685811,9.83764865 13.3980405,11.1195405 14.4269595,13.0537297 C15.1096622,14.3368378 15.1181757,15.3122432 15.129527,16.3533243 C15.1339865,16.7327838 15.3622297,17.0506216 15.3987162,17.4252162 C15.4789865,18.2498108 14.9580405,19.0006216 14.1460135,19.1777838 C13.8966892,20.4758919 13.1734459,21.5177838 12.2397973,22.4287297 C11.9819595,22.6800811 11.7180405,22.9585946 11.420473,23.1531892" id="Stroke-39" stroke="#FFFFFF" stroke-width="1.5" stroke-linecap="round" stroke-linejoin="round"></path>
            <path d="M13.6044324,32.5377973 C13.8630811,32.4336081 14.1383514,32.3249595 14.4322703,32.2090135" id="Fill-45" fill="#FFFFFF"></path>
            <path d="M15.5333108,31.8124865 C17.4261486,31.0608649 19.4381757,30.2318108 20.7970946,29.6662703 C21.785473,29.2547838 22.4288514,28.2899189 22.4288514,27.2188378 L22.4288514,22.0519459" id="Stroke-47" stroke="#FFFFFF" stroke-width="1.5" stroke-linecap="round" stroke-linejoin="round"></path>
            <path d="M12.354,33.0405811 C12.4131892,33.0162568 12.474,32.9923378 12.5356216,32.9680135" id="Stroke-49" stroke="#FFFFFF" stroke-width="1.5" stroke-linecap="round" stroke-linejoin="round"></path>
            <path d="M9.15231081,38.7617838 C9.31122973,37.4008378 9.36231081,36.3861081 9.60514865,35.5732703" id="Stroke-51" stroke="#FFFFFF" stroke-width="1.5" stroke-linecap="round" stroke-linejoin="round"></path>
            <path d="M36.5704459,13.760473 C36.6182838,13.5699324 36.6657162,13.1077703 36.6182838,12.7197973 C36.6182838,12.7197973 36.5108514,8.74763514 30.9239595,8.53114865 C25.3370676,8.31425676 24.8169324,9.31033784 23.0846351,7.70777027 C23.6197703,8.52344595 23.4803108,9.99871622 22.8426081,11.4099324" id="Stroke-53" stroke="#FFFFFF" stroke-width="1.5" stroke-linecap="round" stroke-linejoin="round"></path>
            <path d="M35.8833243,18.9539189 C35.8557568,19.2328378 35.8054865,19.5028378 35.7325135,19.767973 C35.5492703,20.4267568 35.2294054,21.0397297 34.7903514,21.5651351 C34.6026486,21.7893243 34.3967027,21.9952703 34.1729189,22.182973 L30.386027,25.5851351 C29.4211622,26.3537838 28.0488649,26.3306757 27.1115676,25.5397297 L24.4999459,23.7060811 L23.0635946,22.6994595 C22.8304865,22.5028378 22.6156216,22.2835135 22.4327838,22.0504054 L22.4283243,22.0504054 C22.3549459,21.9587838 22.2864324,21.8675676 22.2223784,21.7710811 C22.1627838,21.6887838 22.1080541,21.602027 22.0529189,21.5148649 C21.9799459,21.3960811 21.9158919,21.2772973 21.8518378,21.1540541 C21.7512973,20.9525676 21.6645405,20.7421622 21.5956216,20.5224324 C21.5591351,20.412973 21.5226486,20.3031081 21.4999459,20.1887838 C21.4999459,20.1887838 21.4950811,20.1843243 21.4950811,20.1794595 C21.4675135,20.07 21.4448108,19.9556757 21.4265676,19.8409459 C21.4038649,19.7225676 21.3852162,19.6078378 21.3762973,19.4890541" id="Stroke-55" stroke="#FFFFFF" stroke-width="1.5" stroke-linecap="round" stroke-linejoin="round"></path>
            <path d="M20.3262973,13.7933108 L20.3262973,13.7933108 C19.5033243,14.0503378 19.2004865,14.0503378 19.3735946,15.4627703 C19.5467027,16.8756081 19.5900811,17.7739865 19.8065676,18.6306081 C20.0230541,19.4864189 20.9327838,19.2727703 20.9327838,19.2727703" id="Stroke-57" stroke="#FFFFFF" stroke-width="1.5" stroke-linecap="round" stroke-linejoin="round"></path>
            <path d="M47.9938378,38.7617838 C47.6038378,35.4265135 47.8637027,34.170973 44.3557297,32.8716486 C41.9837027,31.9931351 38.4128919,30.5251622 36.348973,29.6661081 C35.3601892,29.255027 34.7172162,28.2897568 34.7172162,27.2186757 L34.7172162,26.3940811" id="Stroke-59" stroke="#FFFFFF" stroke-width="1.5" stroke-linecap="round" stroke-linejoin="round"></path>
            <path d="M36.0114324,19.2742297 C36.0114324,19.2742297 36.0341351,19.2786892 36.0706216,19.2831486 L36.0799459,19.2831486 C36.2262973,19.3062568 36.5968378,19.3245 36.8712973,19.0913919 C36.8895405,19.0776081 36.9077838,19.0593649 36.926027,19.0362568 C37.0176486,18.9401757 37.0954865,18.8076081 37.1412973,18.6292297 C37.1729189,18.5104459 37.2004865,18.3912568 37.2187297,18.2680135 C37.2418378,18.167473 37.2600811,18.0620676 37.2783243,17.961527 C37.3468378,17.5090946 37.3971081,17.0193649 37.4611622,16.4384189 C37.4931892,16.1367973 37.5252162,15.816527 37.571027,15.4646351 C37.5892703,15.3361216 37.5985946,15.2222027 37.6075135,15.1119324 C37.6212973,14.8926081 37.6212973,14.7190946 37.6030541,14.5772027 C37.6030541,14.5682838 37.6030541,14.5589595 37.5985946,14.5500405 C37.5892703,14.4855811 37.5754865,14.4263919 37.5617027,14.3761216 C37.5483243,14.3440946 37.539,14.3120676 37.5207568,14.2800405 C37.506973,14.2569324 37.4931892,14.2338243 37.4794054,14.211527 C37.4384595,14.1563919 37.3926486,14.1061216 37.3330541,14.0647703 C37.3054865,14.0509865 37.2783243,14.0327432 37.2507568,14.0189595 C37.2187297,14.0007162 37.1867027,13.982473 37.1502162,13.9686892 C37.1457568,13.9686892 37.1412973,13.9642297 37.1364324,13.9642297 C36.9945405,13.9050405 36.8254865,13.8592297 36.6195405,13.7947703" id="Stroke-61" stroke="#FFFFFF" stroke-width="1.5" stroke-linecap="round" stroke-linejoin="round"></path>
            <path d="M20.4844865,13.7220405 C17.7196216,7.7337973 19.0043514,3.99352703 21.575027,2.68974324 C20.7342162,0.862175676 20.6871892,0.202581081 20.6871892,0.202581081 C20.6871892,0.202581081 26.0535405,1.09893243 27.8993514,0.735689189 C30.2442162,0.273527027 33.8373243,0.8265 35.1824595,3.93312162 C37.0323243,4.66406757 40.3696216,6.59785135 37.2431351,13.3839324" id="Stroke-63" stroke="#FFFFFF" stroke-width="1.5" stroke-linecap="round" stroke-linejoin="round"></path>
        </g>
    </g>
</svg>