<?xml version="1.0" encoding="UTF-8"?>
<svg width="100px" height="100px" viewBox="0 0 100 100" version="1.1" xmlns="http://www.w3.org/2000/svg" xmlns:xlink="http://www.w3.org/1999/xlink">
    <!-- Generator: Sketch 57.1 (83088) - https://sketch.com -->
    <title>Atoms / Icons / Fast</title>
    <desc>Created with Sketch.</desc>
    <g id="Atoms-/-Icons-/-Fast" stroke="none" stroke-width="1" fill="none" fill-rule="evenodd">
        <rect id="Rectangle" fill="#FFFFFF" x="0" y="0" width="100" height="100"></rect>
        <g id="Group-21" transform="translate(20.000000, 24.000000)">
            <path d="M49.5260735,24.4301471 C49.2428382,25.0910294 48.6763676,25.6398529 47.8500441,25.8639706 L37.0275441,30.195 C33.9119559,31.4461765 31.4453382,33.9127941 30.1946029,37.0288235 L25.8631324,47.8451471 C25.4087206,49.5092647 23.6501912,50.1172059 22.3165147,49.5388235 C21.7796029,49.3027941 21.3075441,48.8717647 21.0185735,48.2408824 L0.471220588,3.34588235 C-0.366573529,1.51632353 1.51548529,-0.365735294 3.34504412,0.466323529 L48.2396029,21.0194118 C49.6619559,21.6683824 50.05725,23.2319118 49.5260735,24.4301471" id="Fill-1" fill="#FFFFFF"></path>
            <path d="M20.9900294,8.54563235 L48.2410588,21.0190147 C50.4381176,22.0248971 50.1782647,25.2260735 47.8479706,25.8644559 L37.0303235,30.1968088 C33.9142941,31.4448971 31.4450294,33.9141618 30.1969412,37.0301912 L25.8641471,47.8482794 C25.2262059,50.1781324 22.0245882,50.4379853 21.0191471,48.2413676 L0.469147059,3.34548529 C-0.367764706,1.51680882 1.51738235,-0.367897059 3.34561765,0.469014706 L11.5342941,4.21725" id="Stroke-7" stroke="#212529" stroke-width="1.5" stroke-linecap="round" stroke-linejoin="round"></path>
            <path d="M17.5476618,6.96966176 L17.9328088,7.14613235" id="Stroke-9" stroke="#212529" stroke-width="1.5" stroke-linecap="round" stroke-linejoin="round"></path>
            <path d="M11.5344706,4.21747059 L11.9500588,4.40761765" id="Stroke-11" stroke="#212529" stroke-width="1.5" stroke-linecap="round" stroke-linejoin="round"></path>
            <path d="M57.87825,51.7826471 C57.4264853,51.7826471 56.9751618,51.6101471 56.6301618,51.2655882 L41.8675147,36.5029412 C41.1783971,35.8142647 41.1783971,34.6963235 41.8675147,34.0076471 C42.5570735,33.3180882 43.6741324,33.3180882 44.3636912,34.0076471 L59.1263382,48.7702941 C59.8154559,49.4589706 59.8154559,50.5769118 59.1263382,51.2655882 C58.7813382,51.6101471 58.3300147,51.7826471 57.87825,51.7826471" id="Fill-13" fill="#E1DED4"></path>
            <path d="M57.87825,51.7826471 C57.4264853,51.7826471 56.9751618,51.6101471 56.6301618,51.2655882 L41.8675147,36.5029412 C41.1783971,35.8142647 41.1783971,34.6963235 41.8675147,34.0076471 C42.5570735,33.3180882 43.6741324,33.3180882 44.3636912,34.0076471 L59.1263382,48.7702941 C59.8154559,49.4589706 59.8154559,50.5769118 59.1263382,51.2655882 C58.7813382,51.6101471 58.3300147,51.7826471 57.87825,51.7826471 Z" id="Stroke-15" stroke="#212529" stroke-width="1.5" stroke-linecap="round" stroke-linejoin="round"></path>
            <path d="M42.9323382,51.8744559 C42.4805735,51.8744559 42.02925,51.7019559 41.68425,51.3573971 L35.0824853,44.7551912 C34.3933676,44.0665147 34.3933676,42.9490147 35.0824853,42.2598971 C35.7724853,41.5707794 36.8895441,41.5712206 37.5782206,42.2598971 L44.1804265,48.8621029 C44.8695441,49.5507794 44.8695441,50.6687206 44.1804265,51.3573971 C43.8354265,51.7019559 43.3836618,51.8744559 42.9323382,51.8744559" id="Fill-17" fill="#E1DED4"></path>
            <path d="M42.9323382,51.8744559 C42.4805735,51.8744559 42.02925,51.7019559 41.68425,51.3573971 L35.0824853,44.7551912 C34.3933676,44.0665147 34.3933676,42.9490147 35.0824853,42.2598971 C35.7724853,41.5707794 36.8895441,41.5712206 37.5782206,42.2598971 L44.1804265,48.8621029 C44.8695441,49.5507794 44.8695441,50.6687206 44.1804265,51.3573971 C43.8354265,51.7019559 43.3836618,51.8744559 42.9323382,51.8744559 Z" id="Stroke-19" stroke="#212529" stroke-width="1.5" stroke-linecap="round" stroke-linejoin="round"></path>
        </g>
    </g>
</svg>