<?xml version="1.0" encoding="UTF-8"?>
<svg width="100px" height="100px" viewBox="0 0 100 100" version="1.1" xmlns="http://www.w3.org/2000/svg" xmlns:xlink="http://www.w3.org/1999/xlink">
    <!-- Generator: Sketch 57.1 (83088) - https://sketch.com -->
    <title>Atoms / Icons / Trainning#2</title>
    <desc>Created with Sketch.</desc>
    <g id="Atoms-/-Icons-/-Trainning#2" stroke="none" stroke-width="1" fill="none" fill-rule="evenodd">
        <rect id="Rectangle" fill="#F4F3EE" x="0" y="0" width="100" height="100"></rect>
        <g id="Group-53" transform="translate(20.000000, 26.000000)">
            <path d="M42.2616486,54.9543243 L41.343,52.7562162 C41.0636757,52.0881081 40.295027,51.7722973 39.6269189,52.0524324 L37.0542162,53.13 C36.2381351,53.4721622 35.4102973,52.6674324 35.7289459,51.8412162 L40.0469189,40.6528378 L48.3925946,43.8737838 L44.1265135,54.9287838 C43.8001622,55.7736486 42.6107027,55.7902703 42.2616486,54.9543243" id="Fill-1" fill="#FFFFFF"></path>
            <path d="M50.7878514,58.0075135 L51.7693378,55.7931892 C52.0559595,55.1465676 52.803527,54.8437297 53.4590676,55.1088649 L56.0029865,56.1365676 C56.8182568,56.4657568 57.633527,55.6634595 57.3169054,54.8429189 L50.673527,37.6285946 L42.3274459,40.8499459 L48.9319054,57.9625135 C49.2542027,58.7972432 50.4250135,58.8264324 50.7878514,58.0075135" id="Fill-3" fill="#FFFFFF"></path>
            <path d="M42.2616486,54.9543243 L41.343,52.7562162 C41.0636757,52.0881081 40.295027,51.7722973 39.6269189,52.0524324 L37.0542162,53.13 C36.2381351,53.4721622 35.4102973,52.6674324 35.7289459,51.8412162 L40.0469189,40.6528378 L48.3925946,43.8737838 L44.1265135,54.9287838 C43.8001622,55.7736486 42.6107027,55.7902703 42.2616486,54.9543243" id="Fill-5" fill="#E1DED4"></path>
            <path d="M50.8271081,58.0075135 L51.8085946,55.7931892 C52.0952162,55.1465676 52.8427838,54.8437297 53.4983243,55.1088649 L56.0422432,56.1365676 C56.8575135,56.4657568 57.6727838,55.6634595 57.3561622,54.8429189 L50.7127838,37.6285946 L42.3667027,40.8499459 L48.9711622,57.9625135 C49.2934595,58.7972432 50.4642703,58.8264324 50.8271081,58.0075135" id="Fill-7" fill="#E1DED4"></path>
            <path d="M38.1276486,45.626027 L40.0468378,40.6525135 L48.3925135,43.8738649 L44.1264324,54.9284595 C43.8000811,55.7733243 42.611027,55.7899459 42.2615676,54.9544054 L41.3433243,52.7562973 C41.0635946,52.0877838 40.2953514,51.7723784 39.6268378,52.0525135 L37.0545405,53.1300811 C36.2380541,53.4722432 35.4102162,52.6675135 35.7288649,51.8412973 L36.3012973,50.3579189" id="Stroke-9" stroke="#212529" stroke-width="1.5" stroke-linecap="round" stroke-linejoin="round"></path>
            <path d="M37.0796757,48.3411486 L37.3667027,47.5976351" id="Stroke-11" stroke="#212529" stroke-width="1.5" stroke-linecap="round" stroke-linejoin="round"></path>
            <path d="M46.7278378,52.2510811 L48.932027,57.9624324 C49.2539189,58.7971622 50.4251351,58.8263514 50.787973,58.0074324 L51.7694595,55.7931081 C52.0560811,55.1468919 52.8032432,54.8440541 53.4591892,55.1087838 L56.0031081,56.1364865 C56.8183784,56.4656757 57.6332432,55.6633784 57.317027,54.8432432 L50.6732432,37.6289189 L42.3275676,40.8498649 L43.0386486,42.6932432" id="Stroke-13" stroke="#212529" stroke-width="1.5" stroke-linecap="round" stroke-linejoin="round"></path>
            <path d="M57.3550946,40.5220135 L2.52117568,40.5220135 C1.24090541,40.5220135 0.202662162,39.4837703 0.202662162,38.2030946 L0.202662162,2.52133784 C0.202662162,1.24066216 1.24090541,0.202824324 2.52117568,0.202824324 L57.3550946,0.202824324 C58.6353649,0.202824324 59.6736081,1.24066216 59.6736081,2.52133784 L59.6736081,38.2030946 C59.6736081,39.4837703 58.6353649,40.5220135 57.3550946,40.5220135" id="Fill-15" fill="#FFFFFF"></path>
            <path d="M57.3550946,40.5220135 L2.52117568,40.5220135 C1.24090541,40.5220135 0.202662162,39.4837703 0.202662162,38.2030946 L0.202662162,2.52133784 C0.202662162,1.24066216 1.24090541,0.202824324 2.52117568,0.202824324 L57.3550946,0.202824324 C58.6353649,0.202824324 59.6736081,1.24066216 59.6736081,2.52133784 L59.6736081,38.2030946 C59.6736081,39.4837703 58.6353649,40.5220135 57.3550946,40.5220135 Z" id="Stroke-17" stroke="#212529" stroke-width="1.5" stroke-linecap="round" stroke-linejoin="round"></path>
            <path d="M19.1024595,5.74666216 L40.7738108,5.74666216" id="Stroke-19" stroke="#212529" stroke-width="1.5" stroke-linecap="round" stroke-linejoin="round"></path>
            <path d="M23.8862027,9.27454054 L35.9899865,9.27454054" id="Stroke-21" stroke="#212529" stroke-width="1.5" stroke-linecap="round" stroke-linejoin="round"></path>
            <path d="M33.836027,18.3462973 L41.1953514,18.3462973" id="Stroke-23" stroke="#212529" stroke-width="1.5" stroke-linecap="round" stroke-linejoin="round"></path>
            <path d="M4.90775676,18.3462973 L28.1314054,18.3462973" id="Stroke-25" stroke="#212529" stroke-width="1.5" stroke-linecap="round" stroke-linejoin="round"></path>
            <path d="M29.3662703,23.6383378 L32.5012703,23.6383378" id="Stroke-27" stroke="#212529" stroke-width="1.5" stroke-linecap="round" stroke-linejoin="round"></path>
            <path d="M11.4207568,23.6383378 L24.4857568,23.6383378" id="Stroke-29" stroke="#212529" stroke-width="1.5" stroke-linecap="round" stroke-linejoin="round"></path>
            <path d="M4.90775676,23.6383378 L6.6587027,23.6383378" id="Stroke-31" stroke="#212529" stroke-width="1.5" stroke-linecap="round" stroke-linejoin="round"></path>
            <path d="M6.06656757,34.9302973 C6.19264865,33.4221892 7.28886486,32.040973 8.72805405,31.575973 C10.1680541,31.1105676 11.8654865,31.5901622 12.849,32.7394865 C13.3804865,33.3601622 13.9014324,34.2427297 14.7134595,34.1511081 C15.6138649,34.0501622 15.8692703,32.8781351 16.4749459,32.2043514 C16.9046757,31.725973 17.5865676,31.4871892 18.221027,31.593 C18.8562973,31.698 19.4234595,32.1447568 19.676027,32.7366486" id="Stroke-33" stroke="#212529" stroke-width="1.5" stroke-linecap="round" stroke-linejoin="round"></path>
            <path d="M55.7152703,38.6268243 C55.6224324,39.095473 55.3447297,39.4964189 54.9064865,39.8414189 C54.6190541,40.0684459 54.3393243,40.3027703 54.0498649,40.524527 C53.5455405,40.9125 53.2252703,41.4216892 53.0164865,42.0115541 C52.8981081,42.3439865 52.7647297,42.6739865 52.6333784,43.0015541 C52.2981081,43.8581757 51.6555405,44.274527 50.7486486,44.3093919 C50.3931081,44.3247973 50.0404054,44.349527 49.6848649,44.3649324 C49.1156757,44.3876351 48.5890541,44.5441216 48.1098649,44.8611486 C47.6793243,45.1433108 47.2435135,45.4234459 46.7947297,45.6727703 C46.6585135,45.7481757 46.5198649,45.8089865 46.3816216,45.8466892 C45.9352703,45.9752027 45.4844595,45.9172297 45.0409459,45.6727703 C44.712973,45.4915541 44.3805405,45.3050676 44.0833784,45.080473 C43.6954054,44.7857432 43.2818919,44.5915541 42.8432432,44.4731757 C42.5006757,44.3823649 42.1427027,44.3397973 41.7701351,44.334527 L41.732027,44.334527 C41.3894595,44.3320946 41.0464865,44.2939865 40.7067568,44.2514189 C40.0564865,44.1711486 39.5922973,43.8180405 39.3206757,43.2285811 C39.1617568,42.8884459 39.0105405,42.5430405 38.8994595,42.1850676 C38.6554054,41.3912838 38.1713514,40.7864189 37.5162162,40.2950676 C37.2162162,40.0712838 36.9263514,39.8292568 36.6543243,39.5693919 C36.1455405,39.0829054 35.9967568,38.4784459 36.1504054,37.7977703 C36.2209459,37.4831757 36.2862162,37.1657432 36.3924324,36.8629054 C36.6591892,36.0820946 36.6567568,35.3057432 36.4074324,34.5220946 C36.3166216,34.2370946 36.2537838,33.9423649 36.1783784,33.6525 C35.9485135,32.7630405 36.2108108,32.0450676 36.9263514,31.4803378 C37.1359459,31.3141216 37.3345946,31.1276351 37.5539189,30.9764189 C38.222027,30.5203378 38.64,29.8952027 38.8974324,29.139527 C39.0231081,28.7637162 39.1767568,28.3960135 39.3506757,28.0380405 C39.6709459,27.3727703 40.242973,27.0756081 40.9536486,27.0147973 C41.3691892,26.9799324 41.79,26.9596622 42.2083784,26.9466892 C42.9291892,26.9268243 43.5287838,26.6069595 44.1012162,26.2137162 C44.3225676,26.0625 44.5467568,25.9137162 44.7737838,25.7702027 C45.542027,25.2837162 46.3110811,25.2837162 47.0768919,25.7750676 C47.3918919,25.9769595 47.7044595,26.1861486 48.017027,26.3949324 C48.5687838,26.7630405 49.1708108,26.9418243 49.8360811,26.9543919 C50.3075676,26.9620946 50.7810811,27.0075 51.2448649,27.0829054 C51.8241892,27.1737162 52.242973,27.5166892 52.4995946,28.0433108 C52.6183784,28.2825 52.7497297,28.524527 52.8174324,28.7815541 C53.0894595,29.8477703 53.732027,30.6285811 54.6141892,31.2512838 C54.8837838,31.4422297 55.122973,31.6818243 55.3447297,31.9266892 C55.6524324,32.2668243 55.7505405,32.5992568 55.7404054,33.2722297 C55.7152703,33.3727703 55.6877027,33.5114189 55.6548649,33.6679054 C55.6045946,33.8969595 55.5389189,34.1693919 55.4533784,34.4337162 C55.2494595,35.0612838 55.1987838,35.6811486 55.3122973,36.3038514 C55.3447297,36.4923649 55.3925676,36.6788514 55.4558108,36.8681757 C55.5466216,37.1426351 55.5993243,37.4300676 55.6727027,37.7093919 C55.7578378,38.0426351 55.7708108,38.3475 55.7152703,38.6268243" id="Fill-35" fill="#FFFFFF"></path>
            <path d="M55.7152703,38.6268243 C55.6224324,39.095473 55.3447297,39.4964189 54.9064865,39.8414189 C54.6190541,40.0684459 54.3393243,40.3027703 54.0498649,40.524527 C53.5455405,40.9125 53.2252703,41.4216892 53.0164865,42.0115541 C52.8981081,42.3439865 52.7647297,42.6739865 52.6333784,43.0015541 C52.2981081,43.8581757 51.6555405,44.274527 50.7486486,44.3093919 C50.3931081,44.3247973 50.0404054,44.349527 49.6848649,44.3649324 C49.1156757,44.3876351 48.5890541,44.5441216 48.1098649,44.8611486 C47.6793243,45.1433108 47.2435135,45.4234459 46.7947297,45.6727703 C46.6585135,45.7481757 46.5198649,45.8089865 46.3816216,45.8466892 C46.2632432,45.8114189 46.1448649,45.7611486 46.0260811,45.695473 C45.7260811,45.5316892 45.4264865,45.3626351 45.1564865,45.1558784 C44.5216216,44.6750676 43.8060811,44.4833108 43.022027,44.4784459 C42.962027,44.4784459 42.9036486,44.4760135 42.8432432,44.4731757 C42.5914865,44.465473 42.3421622,44.435473 42.09,44.405473 C41.9764865,44.3900676 41.8706757,44.3673649 41.7701351,44.334527 C41.3468919,44.1983108 41.0314865,43.9088514 40.83,43.475473 C40.6864865,43.1677703 40.5502703,42.8531757 40.4497297,42.5276351 C40.2275676,41.8072297 39.7893243,41.2575 39.1917568,40.8119595 C38.9197297,40.6076351 38.6578378,40.3883108 38.4105405,40.1515541 C37.9471622,39.710473 37.8137838,39.1611486 37.9524324,38.5437162 C38.0177027,38.2591216 38.0781081,37.9716892 38.1713514,37.6943919 C38.4158108,36.9865541 38.4133784,36.2807432 38.1867568,35.570473 C38.1036486,35.3106081 38.0452703,35.0434459 37.9771622,34.7791216 C37.767973,33.9727703 38.0075676,33.3196622 38.6578378,32.8080405 C38.8491892,32.6572297 39.0283784,32.4881757 39.227027,32.3499324 C39.8318919,31.9364189 40.215,31.3696622 40.4468919,30.6812838 C40.5604054,30.3415541 40.7014865,30.0058784 40.857973,29.6835811 C41.1474324,29.0787162 41.6667568,28.8066892 42.3113514,28.7535811 C42.692027,28.7207432 43.0727027,28.7033108 43.4533784,28.6907432 C44.1056757,28.6729054 44.6501351,28.3810135 45.1718919,28.0258784 C45.3733784,27.8868243 45.5777027,27.7534459 45.7840541,27.6220946 C46.4797297,27.1814189 47.1774324,27.1814189 47.8731081,27.6273649 C48.1605405,27.8114189 48.4451351,28.0003378 48.7277027,28.1916892 C49.2287838,28.524527 49.7760811,28.6858784 50.3805405,28.6984459 C50.8086486,28.7057432 51.2371622,28.7462838 51.6608108,28.8143919 C52.185,28.8975 52.5652703,29.2076351 52.8,29.6860135 C52.9054054,29.9053378 53.0266216,30.1246622 53.087027,30.3565541 C53.3339189,31.3238514 53.9160811,32.034527 54.7175676,32.5992568 C54.962027,32.7731757 55.1813514,32.9900676 55.3828378,33.2138514 C55.5113514,33.3553378 55.5993243,33.4964189 55.6548649,33.6679054 C55.6045946,33.8969595 55.5389189,34.1693919 55.4533784,34.4337162 C55.2494595,35.0612838 55.1987838,35.6811486 55.3122973,36.3038514 C55.2693243,36.7696622 55.3248649,37.2334459 55.4837838,37.6996622 C55.5668919,37.9489865 55.6147297,38.2088514 55.68,38.4634459 C55.695,38.5185811 55.7055405,38.5741216 55.7152703,38.6268243" id="Fill-37" fill="#E1DED4"></path>
            <path d="M39.4103514,27.9223784 C39.6949459,27.4180541 40.1408919,27.1496757 40.6877838,27.0499459" id="Stroke-39" stroke="#212529" stroke-width="1.5" stroke-linecap="round" stroke-linejoin="round"></path>
            <path d="M52.7543108,42.6282568 C52.4668784,43.7378514 51.7793108,44.2701486 50.7483649,44.3106892 C50.3940405,44.3248784 50.0401216,44.3504189 49.6857973,44.3646081 C49.1141757,44.3873108 48.5903919,44.5446081 48.1087703,44.8604189 C47.6782297,45.1429865 47.2440405,45.4231216 46.7944459,45.6740676 C46.2179595,45.9955541 45.6207973,45.9931216 45.0410676,45.6732568 C44.7122838,45.4912297 44.381473,45.3059595 44.0830946,45.0801486 C43.3841757,44.549473 42.5968784,44.3386622 41.7325541,44.3342027 C41.3903919,44.3321757 41.0470135,44.294473 40.706473,44.2519054 C40.0574189,44.1704189 39.5932297,43.8177162 39.3199865,43.2286622 C39.1622838,42.8889324 39.0110676,42.5419054 38.9003919,42.1843378 C38.655527,41.3909595 38.1718784,40.7860946 37.5167432,40.2955541 C37.2163378,40.0705541 36.9260676,39.828527 36.6548514,39.569473 C36.1452568,39.0821757 35.9960676,38.478527 36.150527,37.7978514 C36.2218784,37.4840676 36.2875541,37.1662297 36.3921486,36.8629865 C36.660527,36.0817703 36.6580946,35.3062297 36.4083649,34.5229865 C36.3171486,34.2371757 36.2530946,33.9424459 36.1776892,33.6513649 C35.9478243,32.7631216 36.2097162,32.0447432 36.9256622,31.4812297 C37.1368784,31.3154189 37.3335,31.1289324 37.5548514,30.9777162 C37.9878243,30.6809595 38.3170135,30.3132568 38.5643108,29.883527" id="Stroke-41" stroke="#212529" stroke-width="1.5" stroke-linecap="round" stroke-linejoin="round"></path>
            <path d="M43.0114865,26.7964459 C43.3982432,26.6622568 43.7545946,26.4510405 44.102027,26.2138784 C44.3233784,26.0622568 44.547973,25.9146892 44.775,25.7711757 C45.542027,25.2846892 46.3110811,25.2842838 47.0760811,25.7744189 C47.3927027,25.9771216 47.7048649,26.1871216 48.0174324,26.3963108 C48.5683784,26.7644189 49.1708108,26.9419865 49.8368919,26.9545541 C50.3075676,26.9630676 50.7806757,27.0080676 51.2460811,27.0822568 C51.8245946,27.1746892 52.242973,27.5152297 52.4995946,28.0426622 C52.6171622,28.283473 52.7501351,28.5246892 52.8166216,28.7813108 C53.0898649,29.8463108 53.7308108,30.6295541 54.6141892,31.2518514 C54.8833784,31.4415811 55.1233784,31.6819865 55.3455405,31.9276622 C55.6516216,32.2657703 55.7513514,32.5998243 55.7404054,33.2707703 C55.6808108,33.5209054 55.6005405,33.9879324 55.4541892,34.4338784 C55.1866216,35.2511757 55.182973,36.0546892 55.4558108,36.8683378 C55.5478378,37.1423919 55.5997297,37.4294189 55.6718919,37.7099595 C55.8997297,38.5941486 55.6078378,39.2906351 54.9072973,39.8427973 C54.5460811,40.1265811 54.1966216,40.4249595 53.8244595,40.6945541" id="Stroke-43" stroke="#212529" stroke-width="1.5" stroke-linecap="round" stroke-linejoin="round"></path>
            <path d="M50.9600676,35.6603514 C50.9600676,38.4434595 48.7039865,40.7003514 45.9200676,40.7003514 C43.1365541,40.7003514 40.880473,38.4434595 40.880473,35.6603514 C40.880473,32.8768378 43.1365541,30.6203514 45.9200676,30.6203514 C48.7039865,30.6203514 50.9600676,32.8768378 50.9600676,35.6603514" id="Fill-45" fill="#FFFFFF"></path>
            <path d="M41.4769865,33.2797703 C41.5146892,33.2092297 41.5540135,33.1399054 41.5949595,33.0717973" id="Stroke-47" stroke="#212529" stroke-width="1.5" stroke-linecap="round" stroke-linejoin="round"></path>
            <path d="M50.5467162,33.6578514 C50.8126622,34.2720405 50.9602297,34.9490676 50.9602297,35.6601486 C50.9602297,38.4436622 48.7037432,40.7001486 45.9202297,40.7001486 C43.2246892,40.7001486 41.0237432,38.5839324 40.8871216,35.9228514" id="Stroke-49" stroke="#212529" stroke-width="1.5" stroke-linecap="round" stroke-linejoin="round"></path>
            <path d="M43.3040676,31.3517027 C44.0666351,30.8875135 44.9621757,30.6203514 45.9201486,30.6203514 C46.8769054,30.6203514 47.7716351,30.8871081 48.5333919,31.3500811" id="Stroke-51" stroke="#212529" stroke-width="1.5" stroke-linecap="round" stroke-linejoin="round"></path>
        </g>
    </g>
</svg>