<?xml version="1.0" encoding="UTF-8"?>
<svg width="100px" height="100px" viewBox="0 0 100 100" version="1.1" xmlns="http://www.w3.org/2000/svg" xmlns:xlink="http://www.w3.org/1999/xlink">
    <!-- Generator: Sketch 57.1 (83088) - https://sketch.com -->
    <title>Atoms / Icons / WinWin</title>
    <desc>Created with Sketch.</desc>
    <g id="Atoms-/-Icons-/-WinWin" stroke="none" stroke-width="1" fill="none" fill-rule="evenodd">
        <rect id="Rectangle" fill="#F4F3EE" x="0" y="0" width="100" height="100"></rect>
        <g id="Group-43" transform="translate(24.000000, 20.000000)">
            <path d="M52.2514054,8.98471622 L52.2514054,9.05282432 C52.1468108,23.7062027 51.5565405,33.2445811 48.0368108,40.7141757 C44.5328919,48.1549865 38.1287027,53.5428243 26.4124865,59.8874189 C26.348027,59.9194459 26.288027,59.9559324 26.2235676,59.9879595 C2.55802703,47.2107973 0.400459459,38.3713378 0.19572973,8.98471622 C0.412621622,8.99282432 0.637621622,8.99647297 0.866675676,8.99647297 C7.48816216,8.99647297 18.4446486,5.48890541 26.2235676,0.197148649 C34.2753243,5.66971622 45.7223514,9.23768919 52.2514054,8.98471622" id="Fill-1" fill="#E1DED4"></path>
            <path d="M52.2126081,12.7216622 C52.2308514,11.5135541 52.2434189,10.2677432 52.2523378,8.98301351 C45.7212568,9.23882432 34.2754459,5.66841892 26.2249054,0.197472973 L26.2245,0.197067568 L26.2245,0.197472973 L26.2245,0.197067568 L26.2245,0.197472973 C24.9008514,1.09706757 23.4851757,1.94558108 22.0143649,2.73368919" id="Stroke-5" stroke="#212529" stroke-width="1.5" stroke-linecap="round" stroke-linejoin="round"></path>
            <path d="M52.1314459,16.5757703 C52.1452297,16.0909054 52.1573919,15.5995541 52.1687432,15.1013108" id="Stroke-7" stroke="#212529" stroke-width="1.5" stroke-linecap="round" stroke-linejoin="round"></path>
            <path d="M18.3640135,4.52168919 C11.8041486,7.45277027 4.78698649,9.16277027 0.196986486,8.98317568 C0.401716216,38.3714189 2.55685135,47.2092568 26.2248243,59.9864189 L26.2252297,59.9864189 C44.7068514,50.0089865 50.0703649,42.4339865 51.6311757,25.5999324" id="Stroke-9" stroke="#212529" stroke-width="1.5" stroke-linecap="round" stroke-linejoin="round"></path>
            <path d="M48.0326757,12.9421622 C48.0286216,13.1108108 48.0286216,13.2754054 48.0245676,13.4404054 C47.8157838,25.4983784 47.0280811,33.0555405 44.259973,38.9339189 C41.5036216,44.787973 36.5094324,49.3844595 26.774027,54.9093243 C26.5932162,55.0098649 26.4083514,55.1136486 26.2234865,55.2182432 C16.1268649,49.5571622 10.9997027,44.8962162 8.19145946,38.9339189 C5.38686486,32.9752703 4.61537838,25.2891892 4.41835135,12.9421622 C11.1886216,12.1187838 19.5456486,9.14513514 26.2234865,5.14743243 C26.7541622,5.46486486 27.2965946,5.77824324 27.8467297,6.07945946 C29.7955135,7.16027027 31.857,8.14905405 33.9622703,9.02472973 C33.969973,9.02472973 33.9780811,9.02878378 33.9821351,9.03243243 C38.7472703,11.0177027 43.7094324,12.4159459 48.0326757,12.9421622" id="Fill-11" fill="#F4F3EE"></path>
            <path d="M22.4339189,27.1159054 C19.5912162,28.872527 17.6971622,32.0176622 17.6971622,35.6042838 C17.6971622,41.1113108 22.1618919,45.5760405 27.6689189,45.5760405 C33.1763514,45.5760405 37.6406757,41.1113108 37.6406757,35.6042838 C37.6406757,32.0176622 35.7466216,28.8729324 32.9043243,27.1159054" id="Fill-17" fill="#E1DED4"></path>
            <path d="M6.33786486,33.6863514 C6.27948649,33.4581081 6.22272973,33.227027 6.168,32.9935135" id="Stroke-19" stroke="#212529" stroke-width="1.5" stroke-linecap="round" stroke-linejoin="round"></path>
            <path d="M5.26832432,27.8970405 C4.7412973,23.778527 4.51264865,18.903527 4.41778378,12.9420405 C11.1892703,12.1174459 19.5467027,9.14501351 26.2245405,5.14812162 C32.9031892,9.14501351 41.2602162,12.1174459 48.0312973,12.9424459 C47.8354865,25.2902838 47.0644054,32.9771757 44.259,38.9346081 C41.4511622,44.8960946 36.321973,49.5590676 26.2249459,55.2201486 C16.1279189,49.5590676 10.9983243,44.8960946 8.19048649,38.9346081 C7.96062162,38.4456892 7.74372973,37.9442027 7.54021622,37.4305541" id="Stroke-21" stroke="#212529" stroke-width="1.5" stroke-linecap="round" stroke-linejoin="round"></path>
            <path d="M21.9730946,26.4987162 C19.3452568,28.1227703 17.5935,31.0307432 17.5935,34.3469595 C17.5935,39.4392568 21.7217432,43.5675 26.8136351,43.5675 C31.905527,43.5675 36.0337703,39.4392568 36.0337703,34.3469595 C36.0337703,31.0307432 34.2824189,28.1231757 31.6541757,26.4987162" id="Fill-23" fill="#F4F3EE"></path>
            <path d="M21.9730946,26.4987162 C19.3452568,28.1227703 17.5935,31.0307432 17.5935,34.3469595 C17.5935,39.4392568 21.7217432,43.5675 26.8136351,43.5675 C31.905527,43.5675 36.0337703,39.4392568 36.0337703,34.3469595 C36.0337703,31.0307432 34.2824189,28.1231757 31.6541757,26.4987162" id="Stroke-25" stroke="#212529" stroke-width="1.5" stroke-linecap="round" stroke-linejoin="round"></path>
            <path d="M31.6541351,26.4983108 L31.6541351,21.6699324 C31.6541351,18.9962838 29.4868378,16.8289865 26.814,16.8289865 C24.1403514,16.8289865 21.9730541,18.9962838 21.9730541,21.6699324 L21.9730541,26.4987162" id="Fill-27" fill="#F4F3EE"></path>
            <path d="M31.6541351,26.4983108 L31.6541351,21.6699324 C31.6541351,18.9962838 29.4868378,16.8289865 26.814,16.8289865 C24.1403514,16.8289865 21.9730541,18.9962838 21.9730541,21.6699324 L21.9730541,26.4987162" id="Stroke-29" stroke="#212529" stroke-width="1.5" stroke-linecap="round" stroke-linejoin="round"></path>
            <path d="M24.7379243,25.5077892 L24.7379243,25.8547892" id="Fill-31" fill="#FFFFFF"></path>
            <path d="M24.7379243,25.5077892 L24.7379243,25.8547892" id="Stroke-33" stroke="#212529" stroke-width="1.5" stroke-linecap="round" stroke-linejoin="round"></path>
            <path d="M28.9675135,25.6269324 L28.9675135,21.6661216 C28.9675135,20.4770676 28.0030541,19.5126081 26.814,19.5126081 C25.6241351,19.5126081 24.6596757,20.4770676 24.6596757,21.6661216 L24.6596757,23.2626081" id="Fill-35" fill="#F4F3EE"></path>
            <path d="M28.9675135,25.6269324 L28.9675135,21.6661216 C28.9675135,20.4770676 28.0030541,19.5126081 26.814,19.5126081 C25.6241351,19.5126081 24.6596757,20.4770676 24.6596757,21.6661216 L24.6596757,23.2626081" id="Stroke-37" stroke="#212529" stroke-width="1.5" stroke-linecap="round" stroke-linejoin="round"></path>
            <path d="M25.6352027,38.4961622 L27.9188514,38.4961622 L27.9188514,35.4106216 C28.6047973,35.0108919 29.0714189,34.2762973 29.0714189,33.4249459 C29.0714189,32.1523784 28.0392568,31.1202162 26.7662838,31.1202162 C25.4929054,31.1202162 24.4611486,32.1523784 24.4611486,33.4249459 C24.4611486,34.2762973 24.9277703,35.0108919 25.6137162,35.4106216 L25.6137162,36.3349459" id="Fill-39" fill="#E1DED4"></path>
            <path d="M25.6352027,38.4961622 L27.9188514,38.4961622 L27.9188514,35.4106216 C28.6047973,35.0108919 29.0714189,34.2762973 29.0714189,33.4249459 C29.0714189,32.1523784 28.0392568,31.1202162 26.7662838,31.1202162 C25.4929054,31.1202162 24.4611486,32.1523784 24.4611486,33.4249459 C24.4611486,34.2762973 24.9277703,35.0108919 25.6137162,35.4106216 L25.6137162,36.3349459" id="Stroke-41" stroke="#212529" stroke-width="1.5" stroke-linecap="round" stroke-linejoin="round"></path>
        </g>
    </g>
</svg>