<?xml version="1.0" encoding="UTF-8"?>
<svg width="100px" height="100px" viewBox="0 0 100 100" version="1.1" xmlns="http://www.w3.org/2000/svg" xmlns:xlink="http://www.w3.org/1999/xlink">
    <!-- Generator: Sketch 57.1 (83088) - https://sketch.com -->
    <title>Atoms / Icons / Closing Fast</title>
    <desc>Created with Sketch.</desc>
    <g id="Atoms-/-Icons-/-Closing-Fast" stroke="none" stroke-width="1" fill="none" fill-rule="evenodd">
        <rect id="Rectangle" fill="#FFFFFF" x="0" y="0" width="100" height="100"></rect>
        <g id="Group-53" transform="translate(20.000000, 20.000000)">
            <path d="M39.1249315,29.6869726 L20.0239726,29.6869726 L22.8320548,18.2458767 C22.9771233,17.6557397 23.5064384,17.2406712 24.1146575,17.2406712 L35.0346575,17.2406712 C35.6424658,17.2406712 36.1717808,17.6557397 36.3168493,18.2458767 L39.1249315,29.6869726 Z" id="Fill-1" fill="#E1DED4"></path>
            <path d="M29.2649178,42.1502055 L10.1639589,42.1502055 L12.9720411,30.7091096 C13.1171096,30.1189726 13.6464247,29.7039041 14.2542329,29.7039041 L25.1742329,29.7039041 C25.7824521,29.7039041 26.3117671,30.1189726 26.4568356,30.7091096 L29.2649178,42.1502055 Z" id="Fill-3" fill="#E1DED4"></path>
            <path d="M49.6162192,42.1502055 L30.5152603,42.1502055 L33.3233425,30.7091096 C33.468411,30.1189726 33.997726,29.7039041 34.6055342,29.7039041 L45.5259452,29.7039041 C46.1337534,29.7039041 46.6630685,30.1189726 46.808137,30.7091096 L49.6162192,42.1502055 Z" id="Fill-5" fill="#E1DED4"></path>
            <path d="M19.3063973,54.7317945 L0.205438356,54.7317945 L3.01352055,43.2906986 C3.15858904,42.7005616 3.68790411,42.2854932 4.29571233,42.2854932 L15.2161233,42.2854932 C15.8239315,42.2854932 16.3532466,42.7005616 16.4983151,43.2906986 L19.3063973,54.7317945 Z" id="Fill-7" fill="#E1DED4"></path>
            <path d="M39.6579041,54.7317945 L20.5569452,54.7317945 L23.3650274,43.2906986 C23.5100959,42.7005616 24.039411,42.2854932 24.6472192,42.2854932 L35.5672192,42.2854932 C36.1754384,42.2854932 36.7047534,42.7005616 36.8498219,43.2906986 L39.6579041,54.7317945 Z" id="Fill-9" fill="#E1DED4"></path>
            <path d="M59.7726164,54.7317945 L40.6716575,54.7317945 L43.4797397,43.2906986 C43.6248082,42.7005616 44.1541233,42.2854932 44.7619315,42.2854932 L55.6819315,42.2854932 C56.2901507,42.2854932 56.8194658,42.7005616 56.9645342,43.2906986 L59.7726164,54.7317945 Z" id="Fill-11" fill="#E1DED4"></path>
            <path d="M26.6364247,17.2406301 L27.0157397,17.2406301" id="Stroke-25" stroke="#212529" stroke-width="1.5" stroke-linecap="round" stroke-linejoin="round"></path>
            <path d="M29.0393836,17.2406301 L35.0344521,17.2406301 C35.6426712,17.2406301 36.1719863,17.6556986 36.3166438,18.2458356 L39.125137,29.6869315 L20.0241781,29.6869315 L22.8322603,18.2458356 C22.9773288,17.6556986 23.5066438,17.2406301 24.1144521,17.2406301 L24.6129452,17.2406301" id="Stroke-27" stroke="#212529" stroke-width="1.5" stroke-linecap="round" stroke-linejoin="round"></path>
            <path d="M29.2649178,42.1502055 L10.1639589,42.1502055 L12.9720411,30.7091096 C13.1171096,30.1189726 13.6464247,29.7039041 14.2542329,29.7039041 L25.1742329,29.7039041 C25.7824521,29.7039041 26.3117671,30.1189726 26.4568356,30.7091096 L29.2649178,42.1502055 Z" id="Stroke-29" stroke="#212529" stroke-width="1.5" stroke-linecap="round" stroke-linejoin="round"></path>
            <path d="M49.6162192,42.1502055 L30.5152603,42.1502055 L33.3233425,30.7091096 C33.468411,30.1189726 33.997726,29.7039041 34.6055342,29.7039041 L45.5259452,29.7039041 C46.1337534,29.7039041 46.6630685,30.1189726 46.808137,30.7091096 L49.6162192,42.1502055 Z" id="Stroke-31" stroke="#212529" stroke-width="1.5" stroke-linecap="round" stroke-linejoin="round"></path>
            <path d="M2.12617808,46.906726 L3.01384932,43.2906986 C3.15850685,42.7005616 3.68782192,42.2854932 4.29563014,42.2854932 L15.2160411,42.2854932 C15.8242603,42.2854932 16.3531644,42.7005616 16.4982329,43.2906986 L19.3063151,54.7317945 L0.205356164,54.7317945 L1.45549315,49.6391918" id="Stroke-33" stroke="#212529" stroke-width="1.5" stroke-linecap="round" stroke-linejoin="round"></path>
            <path d="M39.6579041,54.7317945 L20.5569452,54.7317945 L23.3650274,43.2906986 C23.5100959,42.7005616 24.039411,42.2854932 24.6472192,42.2854932 L35.5672192,42.2854932 C36.1754384,42.2854932 36.7047534,42.7005616 36.8498219,43.2906986 L39.6579041,54.7317945 Z" id="Stroke-35" stroke="#212529" stroke-width="1.5" stroke-linecap="round" stroke-linejoin="round"></path>
            <path d="M59.7726164,54.7317945 L40.6716575,54.7317945 L43.4797397,43.2906986 C43.6248082,42.7005616 44.1541233,42.2854932 44.7619315,42.2854932 L55.6819315,42.2854932 C56.2901507,42.2854932 56.8194658,42.7005616 56.9645342,43.2906986 L59.7726164,54.7317945 Z" id="Stroke-37" stroke="#212529" stroke-width="1.5" stroke-linecap="round" stroke-linejoin="round"></path>
            <path d="M52.0669315,21.4702192 L59.2907671,16.9558356" id="Stroke-39" stroke="#212529" stroke-width="1.5" stroke-linecap="round" stroke-linejoin="round"></path>
            <path d="M45.7859589,6.58861644 L46.875,4.72039726" id="Stroke-41" stroke="#212529" stroke-width="1.5" stroke-linecap="round" stroke-linejoin="round"></path>
            <path d="M42.5857808,12.0795616 L44.5616712,8.68915068" id="Stroke-43" stroke="#212529" stroke-width="1.5" stroke-linecap="round" stroke-linejoin="round"></path>
            <path d="M7.64605479,21.4702192 L0.422219178,16.9558356" id="Stroke-45" stroke="#212529" stroke-width="1.5" stroke-linecap="round" stroke-linejoin="round"></path>
            <path d="M13.177726,5.30313699 L12.838274,4.72039726" id="Stroke-47" stroke="#212529" stroke-width="1.5" stroke-linecap="round" stroke-linejoin="round"></path>
            <path d="M17.1272055,12.0795616 L14.5143288,7.59682192" id="Stroke-49" stroke="#212529" stroke-width="1.5" stroke-linecap="round" stroke-linejoin="round"></path>
            <path d="M29.9895205,8.87416438 L29.9895205,0.20539726" id="Stroke-51" stroke="#212529" stroke-width="1.5" stroke-linecap="round" stroke-linejoin="round"></path>
        </g>
    </g>
</svg>