<?xml version="1.0" encoding="UTF-8"?>
<svg width="101px" height="100px" viewBox="0 0 101 100" version="1.1" xmlns="http://www.w3.org/2000/svg" xmlns:xlink="http://www.w3.org/1999/xlink">
    <!-- Generator: sketchtool 57.1 (101010) - https://sketch.com -->
    <title>2093AAD7-A50B-46BF-80BB-D0000A9C167F</title>
    <desc>Created with sketchtool.</desc>
    <g id="Page-1" stroke="none" stroke-width="1" fill="none" fill-rule="evenodd">
        <g id="Home-Page---Closers.com-V3" transform="translate(-269.000000, -1182.000000)">
            <g id="Group" transform="translate(0.000000, 859.000000)">
                <g id="Molecules-/-Features-Copy-14" transform="translate(140.000000, 278.000000)">
                    <g id="Group">
                        <g id="Stacked-Group" transform="translate(51.000000, 45.000000)">
                            <g id="Group-3" transform="translate(78.000000, 0.000000)">
                                <g id="Atoms-/-Icons-/-Scale" transform="translate(0.201681, 0.000000)">
                                    <rect id="Rectangle" fill="#F4F3EE" x="0" y="0" width="100" height="100"></rect>
                                    <g id="Group-43" transform="translate(22.000000, 20.000000)">
                                        <path d="M46.2399452,38.3416849 L24.9095342,59.6725068 L3.21871233,59.6725068 C1.79227397,59.6725068 0.635013699,58.5156575 0.635013699,57.0883973 L0.635013699,2.78921918 C0.635013699,1.36236986 1.79227397,0.205520548 3.21871233,0.205520548 L33.0083014,0.205520548 L46.3944658,14.8516849 L46.6644658,37.9175753" id="Fill-1" fill="#FFFFFF"></path>
                                        <path d="M15.0239178,46.8177123 L25.0977534,46.8177123" id="Stroke-3" stroke="#212529" stroke-width="1.5" stroke-linecap="round" stroke-linejoin="round"></path>
                                        <path d="M8.36108219,46.8177123 L12.2882055,46.8177123" id="Stroke-5" stroke="#212529" stroke-width="1.5" stroke-linecap="round" stroke-linejoin="round"></path>
                                        <path d="M27.3350137,40.1757534 L37.3241918,40.1757534" id="Stroke-7" stroke="#212529" stroke-width="1.5" stroke-linecap="round" stroke-linejoin="round"></path>
                                        <path d="M8.55534247,40.1757534 L23.1267123,40.1757534" id="Stroke-9" stroke="#212529" stroke-width="1.5" stroke-linecap="round" stroke-linejoin="round"></path>
                                        <path d="M34.3044658,33.5342055 L37.7963836,33.5342055" id="Stroke-11" stroke="#212529" stroke-width="1.5" stroke-linecap="round" stroke-linejoin="round"></path>
                                        <path d="M8.74956164,33.5342055 L30.0709315,33.5342055" id="Stroke-13" stroke="#212529" stroke-width="1.5" stroke-linecap="round" stroke-linejoin="round"></path>
                                        <path d="M23.9679041,26.8922466 L37.7128356,26.8922466" id="Stroke-15" stroke="#212529" stroke-width="1.5" stroke-linecap="round" stroke-linejoin="round"></path>
                                        <path d="M8.94423288,26.8922466 L19.5494384,26.8922466" id="Stroke-17" stroke="#212529" stroke-width="1.5" stroke-linecap="round" stroke-linejoin="round"></path>
                                        <path d="M9.13845205,8.68121918 L27.019274,8.68121918" id="Stroke-19" stroke="#212529" stroke-width="1.5" stroke-linecap="round" stroke-linejoin="round"></path>
                                        <path d="M9.13845205,13.3947945 L15.9706438,13.3947945" id="Stroke-21" stroke="#212529" stroke-width="1.5" stroke-linecap="round" stroke-linejoin="round"></path>
                                        <path d="M32.5811918,0.237287671 L32.5811918,11.8797534 C32.5811918,13.4804384 34.0043425,14.8530411 35.6046164,14.8530411 L45.9636575,14.8530411" id="Fill-23" fill="#FFFFFF"></path>
                                        <path d="M34.0407945,1.39672603 L34.0407945,11.9776849 C34.0407945,13.4320685 35.3340822,14.6801507 36.7888767,14.6801507 L46.2035342,14.6801507" id="Fill-25" fill="#96C5FF"></path>
                                        <path d="M34.0407945,3.53942466 L34.0407945,14.1199726 C34.0407945,15.5747671 35.3340822,16.8224384 36.7888767,16.8224384 L46.2035342,16.8224384 L46.2035342,14.6801096" id="Fill-27" fill="#E1DED4"></path>
                                        <path d="M32.5811918,9.32975342 L32.5811918,11.8797534 C32.5811918,13.4804384 34.0043425,14.8530411 35.6046164,14.8530411 L45.9636575,14.8530411" id="Stroke-29" stroke="#212529" stroke-width="1.5" stroke-linecap="round" stroke-linejoin="round"></path>
                                        <path d="M32.5811918,0.237287671 L32.5811918,6.52167123" id="Stroke-31" stroke="#212529" stroke-width="1.5" stroke-linecap="round" stroke-linejoin="round"></path>
                                        <path d="M0.205315068,14.0898904 L0.205315068,13.4931781" id="Stroke-33" stroke="#212529" stroke-width="1.5" stroke-linecap="round" stroke-linejoin="round"></path>
                                        <path d="M0.206506849,20.5035205 L0.206506849,57.0883151 C0.206506849,58.5155753 1.36335616,59.6728356 2.79020548,59.6728356 L3.21883562,59.6728356 L29.3660959,59.6728356" id="Stroke-35" stroke="#212529" stroke-width="1.5" stroke-linecap="round" stroke-linejoin="round"></path>
                                        <path d="M46.2130685,36.0300411 L45.9656712,14.8516849 L32.5795068,0.205520548 L3.2189589,0.205520548 L2.79032877,0.205520548 C1.36347945,0.205520548 0.206630137,1.36278082 0.206630137,2.78921918 L0.206630137,10.510726" id="Stroke-37" stroke="#212529" stroke-width="1.5" stroke-linecap="round" stroke-linejoin="round"></path>
                                        <path d="M37.7646986,57.4621233 L33.1479863,59.2871918 C32.5340137,59.5296575 31.9270274,58.9230822 32.1699041,58.3091096 L33.9949726,53.6919863 C34.1889452,53.2021233 34.481137,52.7570548 34.8534658,52.384726 L51.7857945,35.4519863 C52.2156575,35.0221233 52.9130548,35.0221233 53.3429178,35.4519863 L56.0046986,38.1137671 C56.4349726,38.5440411 56.4349726,39.2410274 56.0046986,39.6713014 L39.0727808,56.6036301 C38.6996301,56.9759589 38.2545616,57.2681507 37.7646986,57.4621233 Z" id="Stroke-39" stroke="#212529" stroke-width="1.5" stroke-linecap="round" stroke-linejoin="round"></path>
                                        <path d="M52.7085205,38.7486575 L37.4381096,54.0190685" id="Stroke-41" stroke="#212529" stroke-width="1.5" stroke-linecap="round" stroke-linejoin="round"></path>
                                    </g>
                                </g>
                            </g>
                        </g>
                    </g>
                </g>
            </g>
        </g>
    </g>
</svg>