<?xml version="1.0" encoding="UTF-8"?>
<svg width="100px" height="100px" viewBox="0 0 100 100" version="1.1" xmlns="http://www.w3.org/2000/svg" xmlns:xlink="http://www.w3.org/1999/xlink">
    <!-- Generator: Sketch 57.1 (83088) - https://sketch.com -->
    <title>Atoms / Icons / Report</title>
    <desc>Created with Sketch.</desc>
    <g id="Atoms-/-Icons-/-Report" stroke="none" stroke-width="1" fill="none" fill-rule="evenodd">
        <rect id="Rectangle" fill="#FFFFFF" x="0" y="0" width="100" height="100"></rect>
        <g id="Group-61" transform="translate(20.000000, 25.000000)">
            <path d="M11.8573878,34.2353878 L11.8573878,49.8521224 L3.92514286,49.8521224 L3.92514286,34.2353878 C3.92514286,33.8341633 4.25004082,33.5092653 4.65126531,33.5092653 L11.1312653,33.5092653 C11.5324898,33.5092653 11.8573878,33.8341633 11.8573878,34.2353878" id="Fill-17" fill="#E1DED4"></path>
            <path d="M26.537102,19.5682041 L26.537102,49.8518776 L18.6109796,49.8518776 L18.6109796,19.5682041 C18.6109796,19.0457551 19.0379184,18.6192245 19.5603673,18.6192245 L25.5942449,18.6192245 C26.1166939,18.6192245 26.537102,19.0457551 26.537102,19.5682041" id="Fill-19" fill="#E1DED4"></path>
            <path d="M41.2234286,31.7250204 L41.2234286,49.8519592 L33.2973061,49.8519592 L33.2973061,31.7250204 C33.2973061,31.3046122 33.6348571,30.9605306 34.0617959,30.9605306 L40.4589388,30.9605306 C40.8793469,30.9605306 41.2234286,31.3046122 41.2234286,31.7250204" id="Fill-21" fill="#E1DED4"></path>
            <path d="M55.9033469,25.8186122 L55.9033469,49.8520816 L47.9772245,49.8520816 L47.9772245,25.8186122 C47.9772245,25.3471837 48.3657959,24.9647347 48.8372245,24.9647347 L55.0494694,24.9647347 C55.520898,24.9647347 55.9033469,25.3471837 55.9033469,25.8186122" id="Fill-23" fill="#E1DED4"></path>
            <path d="M41.3916327,15.7476735 L47.9855102,12.3721633" id="Stroke-33" stroke="#212529" stroke-width="1.5" stroke-linecap="round" stroke-linejoin="round"></path>
            <path d="M26.4207347,7.43930612 L34.0023673,14.6960408" id="Stroke-35" stroke="#212529" stroke-width="1.5" stroke-linecap="round" stroke-linejoin="round"></path>
            <path d="M10.9896327,16.0358367 L19.5875918,7.27787755" id="Stroke-37" stroke="#212529" stroke-width="1.5" stroke-linecap="round" stroke-linejoin="round"></path>
            <path d="M12.2779184,19.1552653 C12.2779184,21.596898 10.2983265,23.5760816 7.85669388,23.5760816 C5.41546939,23.5760816 3.43587755,21.596898 3.43587755,19.1552653 C3.43587755,16.7136327 5.41546939,14.734449 7.85669388,14.734449 C10.2983265,14.734449 12.2779184,16.7136327 12.2779184,19.1552653 Z" id="Stroke-39" stroke="#212529" stroke-width="1.5" stroke-linecap="round" stroke-linejoin="round"></path>
            <path d="M24.4675918,0.204367347 C26.1275918,0.841102041 27.3063673,2.44967347 27.3063673,4.33334694 C27.3063673,6.77538776 25.3267755,8.75457143 22.8851429,8.75457143 C20.4439184,8.75457143 18.4643265,6.77538776 18.4643265,4.33334694 C18.4643265,3.41906122 18.7422857,2.56967347 19.2177959,1.86436735" id="Stroke-41" stroke="#212529" stroke-width="1.5" stroke-linecap="round" stroke-linejoin="round"></path>
            <path d="M20.4999592,0.610530612 C20.5762857,0.56155102 20.6546531,0.515020408 20.7338367,0.470530612" id="Stroke-43" stroke="#212529" stroke-width="1.5" stroke-linecap="round" stroke-linejoin="round"></path>
            <path d="M41.7834286,17.5696327 C41.7834286,20.0112653 39.8038367,21.9908571 37.3622041,21.9908571 C34.9209796,21.9908571 32.9413878,20.0112653 32.9413878,17.5696327 C32.9413878,15.1284082 34.9209796,13.1488163 37.3622041,13.1488163 C39.8038367,13.1488163 41.7834286,15.1284082 41.7834286,17.5696327 Z" id="Stroke-45" stroke="#212529" stroke-width="1.5" stroke-linecap="round" stroke-linejoin="round"></path>
            <path d="M53.341551,14.5148163 C52.8917551,14.6686939 52.4101224,14.7523673 51.9080816,14.7523673 C49.466449,14.7523673 47.4872653,12.7727755 47.4872653,10.3311429 C47.4872653,7.88991837 49.466449,5.91032653 51.9080816,5.91032653 C54.3501224,5.91032653 56.328898,7.88991837 56.328898,10.3311429 C56.328898,11.1442041 56.1097143,11.9062449 55.7268571,12.5609388" id="Stroke-47" stroke="#212529" stroke-width="1.5" stroke-linecap="round" stroke-linejoin="round"></path>
            <path d="M11.8573878,34.2353878 L11.8573878,49.8521224 L3.92514286,49.8521224 L3.92514286,34.2353878 C3.92514286,33.8341633 4.25004082,33.5092653 4.65126531,33.5092653 L11.1312653,33.5092653 C11.5324898,33.5092653 11.8573878,33.8341633 11.8573878,34.2353878 Z" id="Stroke-49" stroke="#212529" stroke-width="1.5" stroke-linecap="round" stroke-linejoin="round"></path>
            <path d="M18.6110204,22.8072245 L18.6110204,19.5680408 C18.6110204,19.0455918 19.0379592,18.6190612 19.5604082,18.6190612 L25.5942857,18.6190612 C26.1167347,18.6190612 26.5371429,19.0455918 26.5371429,19.5680408 L26.5371429,49.8521224 L18.6110204,49.8521224 L18.6110204,43.0504898" id="Stroke-51" stroke="#212529" stroke-width="1.5" stroke-linecap="round" stroke-linejoin="round"></path>
            <path d="M18.6110204,40.099551 L18.6110204,25.7579184" id="Stroke-53" stroke="#212529" stroke-width="1.5" stroke-linecap="round" stroke-linejoin="round"></path>
            <path d="M41.2234286,31.7250204 L41.2234286,49.8519592 L33.2973061,49.8519592 L33.2973061,31.7250204 C33.2973061,31.3046122 33.6348571,30.9605306 34.0617959,30.9605306 L40.4589388,30.9605306 C40.8793469,30.9605306 41.2234286,31.3046122 41.2234286,31.7250204 Z" id="Stroke-55" stroke="#212529" stroke-width="1.5" stroke-linecap="round" stroke-linejoin="round"></path>
            <path d="M47.9772653,46.6556735 L47.9772653,25.8185306 C47.9772653,25.347102 48.3658367,24.9646531 48.8372653,24.9646531 L55.0495102,24.9646531 C55.5209388,24.9646531 55.9033878,25.347102 55.9033878,25.8185306 L55.9033878,49.852 L47.9772653,49.852" id="Stroke-57" stroke="#212529" stroke-width="1.5" stroke-linecap="round" stroke-linejoin="round"></path>
            <polyline id="Stroke-59" stroke="#212529" stroke-width="1.5" stroke-linecap="round" stroke-linejoin="round" points="59.7645714 49.852 55.9033469 49.852 47.9772245 49.852 41.2233469 49.852 33.2972245 49.852 26.5372245 49.852 18.611102 49.852 11.8572245 49.852 3.92497959 49.852 0.204163265 49.852"></polyline>
        </g>
    </g>
</svg>