<?xml version="1.0" encoding="UTF-8"?>
<svg width="100px" height="100px" viewBox="0 0 100 100" version="1.1" xmlns="http://www.w3.org/2000/svg" xmlns:xlink="http://www.w3.org/1999/xlink">
    <!-- Generator: Sketch 57.1 (83088) - https://sketch.com -->
    <title>Atoms / Icons / Data Driven</title>
    <desc>Created with Sketch.</desc>
    <g id="Atoms-/-Icons-/-Data-Driven" stroke="none" stroke-width="1" fill="none" fill-rule="evenodd">
        <rect id="Rectangle" fill="#F4F3EE" x="0" y="0" width="100" height="100"></rect>
        <g id="Group-51" transform="translate(22.000000, 25.000000)">
            <path d="M43.0588843,40.7878512 C52.1291322,40.541157 59.297314,37.5816529 59.297314,33.9642975 L59.297314,25.4229752 L59.297314,25.4056198 L59.297314,16.894876 L59.297314,16.8944628 C59.297314,13.2729752 52.1291322,10.3130579 43.0588843,10.0663636 L43.0588843,40.7878512 Z" id="Fill-1" fill="#E1DED4"></path>
            <path d="M0.206528926,21.9845868 L0.206528926,9.10318182 C0.206528926,4.18871901 9.50115702,0.206900826 20.9693388,0.206900826 C32.4329752,0.206900826 41.7280165,4.18871901 41.7280165,9.10318182 L41.7280165,40.9883058 C41.7280165,45.9031818 32.4329752,49.8854132 20.9693388,49.8854132 C12.5999174,49.8854132 5.38710744,47.7651653 2.10280992,44.7048347 C0.885454545,43.5746694 0.206528926,42.3155785 0.206528926,40.9883058 L0.206528926,28.2242562" id="Fill-3" fill="#FFFFFF"></path>
            <path d="M41.7280165,10.9651653 L41.7280165,40.9883058 C41.7280165,45.9031818 32.4329752,49.8854132 20.9693388,49.8854132 C12.5999174,49.8854132 5.38710744,47.7651653 2.10280992,44.7048347 L2.10280992,10.9651653 C2.10280992,6.27797521 10.9726446,2.4742562 21.9172727,2.4742562 C32.8577686,2.4742562 41.7280165,6.27797521 41.7280165,10.9651653" id="Fill-5" fill="#E1DED4"></path>
            <path d="M41.7280165,10.9651653 L41.7280165,11.3899587 C38.3829752,15.288719 30.4763636,18.0304545 21.2536364,18.0304545 C13.0887603,18.0304545 5.95157025,15.8800413 2.10280992,12.6792149 L2.10280992,10.9651653 C2.10280992,6.27797521 10.9726446,2.4742562 21.9172727,2.4742562 C32.8577686,2.4742562 41.7280165,6.27797521 41.7280165,10.9651653" id="Fill-7" fill="#F4F3EE"></path>
            <path d="M38.6197521,4.41855372 C40.5908264,5.77929752 41.728843,7.38508264 41.728843,9.10450413 C41.728843,14.0181405 32.4338017,18.0020248 20.967686,18.0020248 C14.928843,18.0020248 9.49247934,16.8970661 5.69867769,15.1334298" id="Stroke-9" stroke="#212529" stroke-width="2" stroke-linecap="round" stroke-linejoin="round"></path>
            <path d="M34.9183058,2.51466942 C34.9703719,2.53533058 35.022438,2.55557851 35.0740909,2.57582645" id="Stroke-11" stroke="#212529" stroke-width="2" stroke-linecap="round" stroke-linejoin="round"></path>
            <path d="M0.208181818,8.9938843 C0.345785124,4.13066116 9.58752066,0.206694215 20.967686,0.206694215 C25.2895868,0.206694215 29.3032231,0.772396694 32.6263636,1.74099174" id="Stroke-13" stroke="#212529" stroke-width="2" stroke-linecap="round" stroke-linejoin="round"></path>
            <path d="M2.98429752,13.5534711 C2.56322314,13.2414876 2.18512397,12.9175207 1.85371901,12.5832231" id="Stroke-15" stroke="#212529" stroke-width="2" stroke-linecap="round" stroke-linejoin="round"></path>
            <path d="M41.7288017,29.8652893 C41.7288017,34.7797521 32.4337603,38.7628099 20.9676446,38.7628099 C9.50152893,38.7628099 0.206487603,34.7797521 0.206487603,29.8652893" id="Stroke-17" stroke="#212529" stroke-width="2" stroke-linecap="round" stroke-linejoin="round"></path>
            <path d="M18.2410744,28.306405 C8.06380165,27.7340909 0.206363636,24.002686 0.206363636,19.4849174" id="Stroke-19" stroke="#212529" stroke-width="2" stroke-linecap="round" stroke-linejoin="round"></path>
            <path d="M35.3632231,25.8960744 C32.1471074,27.2229339 27.9347107,28.1092975 23.2549587,28.3291322" id="Stroke-21" stroke="#212529" stroke-width="2" stroke-linecap="round" stroke-linejoin="round"></path>
            <path d="M41.7288017,19.4850826 C41.7288017,21.1743388 40.6304545,22.7532645 38.7230165,24.098719" id="Stroke-23" stroke="#212529" stroke-width="2" stroke-linecap="round" stroke-linejoin="round"></path>
            <path d="M14.5644215,49.4542562 C16.5817769,49.7340083 18.7342562,49.8852479 20.9693802,49.8852479 C32.4330165,49.8852479 41.7276446,45.9030165 41.7276446,40.9885537 L41.7276446,10.965 L41.7276446,9.10342975" id="Stroke-25" stroke="#212529" stroke-width="2" stroke-linecap="round" stroke-linejoin="round"></path>
            <path d="M7.66714876,47.8203306 C8.11756198,47.9814876 8.58409091,48.1347934 9.06549587,48.2790083" id="Stroke-27" stroke="#212529" stroke-width="2" stroke-linecap="round" stroke-linejoin="round"></path>
            <path d="M0.206528926,27.7152479 L0.206528926,40.9883884 C0.206528926,42.3156612 0.885454545,43.5747521 2.10280992,44.7049174 C2.9346281,45.480124 4.01892562,46.1954132 5.30983471,46.8305372" id="Stroke-29" stroke="#212529" stroke-width="2" stroke-linecap="round" stroke-linejoin="round"></path>
            <path d="M0.206528926,9.10322314 L0.206528926,19.2263636" id="Stroke-31" stroke="#212529" stroke-width="2" stroke-linecap="round" stroke-linejoin="round"></path>
            <path d="M57.7603719,12.6047521 C58.7471488,13.5221074 59.297562,14.543595 59.297562,15.6208678 C59.297562,19.4311983 52.3926033,22.552686 43.6558264,22.8126033" id="Stroke-33" stroke="#212529" stroke-width="2" stroke-linecap="round" stroke-linejoin="round"></path>
            <path d="M55.5586777,11.0878512 C55.7239669,11.1754545 55.885124,11.265124 56.0409091,11.3556198" id="Stroke-35" stroke="#212529" stroke-width="2" stroke-linecap="round" stroke-linejoin="round"></path>
            <path d="M43.6557025,8.4285124 C47.3276033,8.53801653 50.6759504,9.15206612 53.3242975,10.1099174" id="Stroke-37" stroke="#212529" stroke-width="2" stroke-linecap="round" stroke-linejoin="round"></path>
            <path d="M43.6557025,31.7776446 C52.378843,31.5177273 59.2747107,28.4094628 59.297438,24.6040909 L59.297438,24.5859091" id="Stroke-39" stroke="#212529" stroke-width="2" stroke-linecap="round" stroke-linejoin="round"></path>
            <path d="M59.297438,15.7478926 L59.297438,15.6206198" id="Stroke-41" stroke="#212529" stroke-width="2" stroke-linecap="round" stroke-linejoin="round"></path>
            <path d="M43.6557025,40.7878512 C52.3928926,40.5283471 59.297438,37.4105785 59.297438,33.6002479 L59.297438,24.6039669 L59.297438,24.5857851 L59.297438,22.3618182 L59.297438,20.7502479" id="Stroke-43" stroke="#212529" stroke-width="2" stroke-linecap="round" stroke-linejoin="round"></path>
            <path d="M11.992686,22.3380992 C11.7943388,23.1327273 10.5063223,23.4955372 9.11582645,23.1480165 C7.72491736,22.8009091 6.75880165,21.8752893 6.95714876,21.0806612 C7.15549587,20.2860331 8.44392562,19.9232231 9.83400826,20.2707438 C11.2249174,20.6178512 12.1910331,21.5434711 11.992686,22.3380992" id="Fill-45" fill="#F4F3EE"></path>
            <path d="M11.992686,32.718719 C11.7943388,33.5133471 10.5063223,33.876157 9.11582645,33.5286364 C7.72491736,33.1815289 6.75880165,32.2559091 6.95714876,31.461281 C7.15549587,30.6666529 8.44392562,30.303843 9.83400826,30.6509504 C11.2249174,30.9984711 12.1910331,31.9240909 11.992686,32.718719" id="Fill-47" fill="#F4F3EE"></path>
            <path d="M11.992686,43.8406198 C11.7943388,44.6352479 10.5063223,44.9980579 9.11582645,44.6505372 C7.72491736,44.3034298 6.75880165,43.3778099 6.95714876,42.5831818 C7.15549587,41.7885537 8.44392562,41.4257438 9.83400826,41.7732645 C11.2249174,42.1203719 12.1910331,43.0459917 11.992686,43.8406198" id="Fill-49" fill="#F4F3EE"></path>
        </g>
    </g>
</svg>