<?xml version="1.0" encoding="UTF-8"?>
<svg width="100px" height="100px" viewBox="0 0 100 100" version="1.1" xmlns="http://www.w3.org/2000/svg" xmlns:xlink="http://www.w3.org/1999/xlink">
    <!-- Generator: Sketch 57.1 (83088) - https://sketch.com -->
    <title>Atoms / Icons / Insight</title>
    <desc>Created with Sketch.</desc>
    <g id="Atoms-/-Icons-/-Insight" stroke="none" stroke-width="1" fill="none" fill-rule="evenodd">
        <rect id="Rectangle" fill="#F4F3EE" x="0" y="0" width="100" height="100"></rect>
        <g id="Group-29" transform="translate(23.000000, 20.000000)">
            <path d="M52.1264795,8.95763014 L52.1264795,9.02584932 C52.0225068,23.6457123 51.4331918,33.1622877 47.9215479,40.6150274 C44.4255205,48.039411 38.0355205,53.4151644 26.3462055,59.7447534 C26.2820959,59.7768082 26.2216849,59.8129726 26.1575753,59.8450274 C2.54593151,47.0974932 0.393328767,38.2779041 0.188671233,8.95763014 C0.405246575,8.96584932 0.629630137,8.96954795 0.858534247,8.96954795 C7.46469863,8.96954795 18.3966164,5.46982192 26.1575753,0.190232877 C34.191411,5.65023288 45.6123699,9.2099589 52.1264795,8.95763014" id="Fill-1" fill="#E1DED4"></path>
            <path d="M52.0879315,12.6859315 C52.1056027,11.480589 52.1183425,10.2378493 52.1273836,8.95647945 C45.6112192,9.21127397 34.1914932,5.64867123 26.1593014,0.190726027 L26.1588904,0.190315068 L26.1588904,0.190315068 L26.1584795,0.190726027 C24.8376575,1.08784932 23.4251918,1.93442466 21.9580685,2.721" id="Stroke-5" stroke="#212529" stroke-width="1.5" stroke-linecap="round" stroke-linejoin="round"></path>
            <path d="M52.0068493,16.5318493 C52.020411,16.0477397 52.0327397,15.5574658 52.0438356,15.0606164" id="Stroke-7" stroke="#212529" stroke-width="1.5" stroke-linecap="round" stroke-linejoin="round"></path>
            <path d="M18.3160685,4.50489041 C11.770726,7.42927397 4.7700411,9.13557534 0.190315068,8.95639726 C0.394150685,38.2779041 2.54469863,47.0954384 26.1588082,59.8442055 L26.1588082,59.8442055 L26.1588082,59.8442055 L26.1588082,59.8442055 C44.5989452,49.889137 49.9504521,42.3307808 51.5075753,25.5357123" id="Stroke-9" stroke="#212529" stroke-width="1.5" stroke-linecap="round" stroke-linejoin="round"></path>
            <path d="M47.9173562,12.9062877 C47.9132466,13.0743699 47.9132466,13.2391644 47.9095479,13.403137 C47.7007808,25.4335479 46.9150274,32.9742329 44.1529726,38.8394384 C41.4028356,44.6795753 36.4199589,49.2662877 26.7069452,54.7780685 C26.5265342,54.8783425 26.3420137,54.982726 26.1574932,55.0866986 C16.0836575,49.4384795 10.9684521,44.7880685 8.16612329,38.8394384 C5.36790411,32.8940959 4.59858904,25.2251918 4.40173973,12.9062877 C11.1566712,12.0843699 19.4950274,9.11765753 26.1574932,5.12889041 C26.6868082,5.44573973 27.2280411,5.75847945 27.7770822,6.05930137 C29.7217397,7.13765753 31.7781781,8.12354795 33.878589,8.99765753 C33.8863973,8.99765753 33.8946164,9.00176712 33.898726,9.00587671 C38.6531096,10.9858767 43.6039315,12.3810822 47.9173562,12.9062877" id="Fill-11" fill="#F4F3EE"></path>
            <path d="M6.3169726,33.6031233 C6.25861644,33.3754521 6.20231507,33.1453151 6.14724658,32.9118904" id="Stroke-17" stroke="#212529" stroke-width="1.5" stroke-linecap="round" stroke-linejoin="round"></path>
            <path d="M5.24983562,27.8272192 C4.72421918,23.7180411 4.49613699,18.8543425 4.40161644,12.9061233 C11.1573699,12.0829726 19.496137,9.11749315 26.1586027,5.1299589 C32.8223014,9.11790411 41.1606575,12.0833836 47.916411,12.9061233 C47.7207945,25.2266712 46.9514795,32.8955753 44.1520274,38.8396849 C41.3509315,44.7874932 36.2332603,49.4399589 26.1590137,55.088589 C16.0847671,49.4399589 10.9670959,44.7874932 8.16558904,38.8396849 C7.93586301,38.3514658 7.71969863,37.8521507 7.51627397,37.338863" id="Stroke-19" stroke="#212529" stroke-width="1.5" stroke-linecap="round" stroke-linejoin="round"></path>
            <path d="M22.8783699,31.8027534 L24.1823425,33.0639863 L37.9326164,19.3137123 C38.8437123,18.4034384 40.3198767,18.4034384 41.2313836,19.3137123 C42.1420685,20.2243973 42.1420685,21.7013836 41.2313836,22.6120685 L25.8516575,37.9917945 C25.396726,38.446726 24.7996027,38.6748082 24.2024795,38.6748082 C23.6148082,38.6748082 23.027137,38.4541233 22.5738493,38.0115205 L15.3459041,31.0063151 C14.4237123,30.1063151 14.4056301,28.6297397 15.3052192,27.7079589 C16.2048082,26.7857671 17.6809726,26.7676849 18.6031644,27.667274" id="Fill-21" fill="#E1DED4"></path>
            <path d="M22.8783699,31.8027534 L24.1823425,33.0639863 L37.9326164,19.3137123 C38.8437123,18.4034384 40.3198767,18.4034384 41.2313836,19.3137123 C42.1420685,20.2243973 42.1420685,21.7013836 41.2313836,22.6120685 L25.8516575,37.9917945 C25.396726,38.446726 24.7996027,38.6748082 24.2024795,38.6748082 C23.6148082,38.6748082 23.027137,38.4541233 22.5738493,38.0115205 L15.3459041,31.0063151 C14.4237123,30.1063151 14.4056301,28.6297397 15.3052192,27.7079589 C16.2048082,26.7857671 17.6809726,26.7676849 18.6031644,27.667274" id="Stroke-23" stroke="#212529" stroke-width="1.5" stroke-linecap="round" stroke-linejoin="round"></path>
            <path d="M20.468589,29.4718356 L21.1540685,30.1347123" id="Fill-25" fill="#FFFFFF"></path>
            <path d="M20.468589,29.4718356 L21.1540685,30.1347123" id="Stroke-27" stroke="#212529" stroke-width="1.5" stroke-linecap="round" stroke-linejoin="round"></path>
        </g>
    </g>
</svg>