<?xml version="1.0" encoding="UTF-8"?>
<svg width="100px" height="100px" viewBox="0 0 100 100" version="1.1" xmlns="http://www.w3.org/2000/svg" xmlns:xlink="http://www.w3.org/1999/xlink">
    <!-- Generator: Sketch 57.1 (83088) - https://sketch.com -->
    <title>Atoms / Icons / Performance</title>
    <desc>Created with Sketch.</desc>
    <g id="Atoms-/-Icons-/-Performance" stroke="none" stroke-width="1" fill="none" fill-rule="evenodd">
        <rect id="Rectangle" fill="#FFFFFF" x="0" y="0" width="100" height="100"></rect>
        <g id="Group-61" transform="translate(27.000000, 18.000000)">
            <path d="M25.0285503,34.8743356 C25.0285503,36.7093691 23.5414362,38.1964832 21.7064027,38.1964832 C19.8713691,38.1964832 18.384255,36.7093691 18.384255,34.8743356 C18.384255,33.0397047 19.8713691,31.5521879 21.7064027,31.5521879 C23.5414362,31.5521879 25.0285503,33.0397047 25.0285503,34.8743356" id="Fill-11" fill="#E1DED4"></path>
            <path d="M25.0285503,34.8743356 C25.0285503,36.7093691 23.5414362,38.1964832 21.7064027,38.1964832 C19.8713691,38.1964832 18.384255,36.7093691 18.384255,34.8743356 C18.384255,33.0397047 19.8713691,31.5521879 21.7064027,31.5521879 C23.5414362,31.5521879 25.0285503,33.0397047 25.0285503,34.8743356 Z" id="Stroke-15" stroke="#212529" stroke-width="1.5" stroke-linecap="round" stroke-linejoin="round"></path>
            <path d="M20.5297987,0.310107383 C20.9107383,0.238832215 21.3045638,0.20138255 21.706443,0.20138255 C25.2210738,0.20138255 28.0708725,3.05077852 28.0708725,6.56581208 C28.0708725,10.0808456 25.2210738,12.9302416 21.706443,12.9302416 C18.1914094,12.9302416 15.3420134,10.0808456 15.3420134,6.56581208 C15.3420134,6.05802685 15.4016107,5.56393289 15.5139597,5.09077852" id="Stroke-17" stroke="#212529" stroke-width="1.5" stroke-linecap="round" stroke-linejoin="round"></path>
            <path d="M16.2843356,3.23154362 C16.729302,2.5095302 17.3148054,1.88295302 18.0017852,1.3904698" id="Stroke-19" stroke="#212529" stroke-width="1.5" stroke-linecap="round" stroke-linejoin="round"></path>
            <path d="M23.3568456,31.8180403 L27.8951007,24.7875705" id="Stroke-21" stroke="#212529" stroke-width="1.5" stroke-linecap="round" stroke-linejoin="round"></path>
            <path d="M8.26563758,18.5321879 L6.14590604,14.8617181 C5.74040268,14.1586309 5.98120805,13.2598389 6.68389262,12.8539329 L8.62,11.7364832 C9.32308725,11.3305772 10.2214765,11.5713826 10.6273826,12.2744698 L12.7467114,15.9449396 L8.26563758,18.5321879 Z" id="Stroke-27" stroke="#212529" stroke-width="1.5" stroke-linecap="round" stroke-linejoin="round"></path>
            <path d="M21.7064027,56.5308322 C9.76519463,56.5308322 0.0500268456,46.8156644 0.0500268456,34.8744564 C0.0500268456,23.7692215 8.45244295,14.5892215 19.2339195,13.3582148 L19.2339195,11.9641208 C19.2339195,10.5994228 20.3408993,9.49204027 21.7064027,9.49204027 C23.0715034,9.49204027 24.1788859,10.5994228 24.1788859,11.9641208 L24.1788859,15.6998255 C24.1788859,17.0649262 23.0715034,18.171906 21.7064027,18.171906 C21.6387517,18.171906 21.571906,18.1690872 21.5058658,18.164255 C12.3826443,18.2713691 4.9945906,25.7266711 4.9945906,34.8744564 C4.9945906,44.0894899 12.4913691,51.5862685 21.7064027,51.5862685 C30.9210336,51.5862685 38.4182148,44.0894899 38.4182148,34.8744564 C38.4182148,30.0168725 36.308953,25.4073423 32.6308322,22.2269396 C31.5979463,21.3345906 31.4847919,19.7729799 32.3779463,18.740094 C33.2715034,17.7068054 34.8327114,17.5940537 35.8651946,18.4872081 C40.6301611,22.6070738 43.3627785,28.5804966 43.3627785,34.8744564 C43.3627785,46.8156644 33.6476107,56.5308322 21.7064027,56.5308322" id="Fill-29" fill="#FFFFFF"></path>
            <path d="M43.3644698,34.8731678 C43.3644698,46.8167919 33.6456779,56.5307517 21.7064832,56.5307517 C9.76688591,56.5307517 0.0484966443,46.8167919 0.0484966443,34.8731678 C0.0484966443,34.6573289 0.0529261745,34.4459195 0.0573557047,34.2345101 C0.371852349,23.4192081 8.66111409,14.5682013 19.234,13.3589396 L19.234,11.9652483 C19.234,10.5989396 20.3397718,9.49316779 21.7064832,9.49316779 C22.2368188,9.49316779 22.7268859,9.65947651 23.1311812,9.94739597 L23.1311812,9.95142282 C23.7650067,10.3919597 24.1785638,11.1292752 24.1785638,11.9652483 L24.1785638,15.700953 C24.1785638,17.0628322 23.0727919,18.1730336 21.7064832,18.1730336 C21.6388322,18.1730336 21.5715839,18.1690067 21.5039329,18.1641745 C12.3831275,18.272094 4.99346309,25.7249799 4.99346309,34.8731678 C4.99346309,35.1695436 5.00191946,35.4667248 5.01561074,35.7586711 C5.01561074,35.7631007 5.01561074,35.7719597 5.02004027,35.7763893 C5.48755705,44.5738389 12.792255,51.5861879 21.7064832,51.5861879 C30.9215168,51.5861879 38.4195034,44.0882013 38.4195034,34.8731678 C38.4195034,30.5801477 36.7697047,26.4804161 33.843396,23.3877987 C33.4612483,22.9835034 33.0565503,22.5965235 32.6297047,22.2280671 C32.351047,21.9852483 32.1352081,21.693302 31.9962819,21.3784027 C31.6097047,20.5287383 31.7264832,19.495047 32.3780268,18.7400134 C33.2723893,17.7055168 34.8327919,17.5935705 35.8660805,18.4883356 C35.9562819,18.564443 36.0460805,18.6449799 36.1314497,18.7218926 C40.7345369,22.8304832 43.3644698,28.6967919 43.3644698,34.8731678" id="Fill-31" fill="#E1DED4"></path>
            <path d="M34.1994497,45.962698 C36.8229396,43.0102148 38.4183758,39.1251141 38.4183758,34.8743758 C38.4183758,30.0167919 36.3087114,25.4072617 32.6305906,22.2272617 C31.5981074,21.3345101 31.484953,19.7728993 32.3781074,18.7400134 C33.2712617,17.7067248 34.8324698,17.5939732 35.8653557,18.4875302 C40.6303221,22.6069933 43.3629396,28.5804161 43.3629396,34.8743758 C43.3629396,46.8155839 33.6477718,56.5307517 21.7065638,56.5307517 C9.76495302,56.5307517 0.0497852349,46.8155839 0.0497852349,34.8743758 C0.0497852349,29.342698 2.13488591,24.2882013 5.56052349,20.4558523" id="Stroke-35" stroke="#212529" stroke-width="1.5" stroke-linecap="round" stroke-linejoin="round"></path>
            <path d="M30.6983893,48.9553289 C30.7398658,48.9291544 30.7809396,48.9021745 30.8220134,48.8755973" id="Stroke-37" stroke="#212529" stroke-width="1.5" stroke-linecap="round" stroke-linejoin="round"></path>
            <path d="M8.01826846,18.1039329 C11.1499463,15.5432617 15.0092752,13.8403087 19.2342416,13.3582953 L19.2342416,11.9642013 C19.2342416,10.5991007 20.3412215,9.49171812 21.7063221,9.49171812 C23.0714228,9.49171812 24.1788054,10.5991007 24.1788054,11.9642013 L24.1788054,15.6995034 C24.1788054,17.0650067 23.0714228,18.1719866 21.7063221,18.1719866 C21.6386711,18.1719866 21.5718255,18.1691678 21.5057852,18.1639329 C12.3825638,18.2714497 4.99451007,25.7267517 4.99451007,34.8741342 C4.99451007,44.0891678 12.4912886,51.5859463 21.7063221,51.5859463 C24.1059195,51.5859463 26.3891409,51.0777584 28.4541074,50.1628591" id="Stroke-39" stroke="#212529" stroke-width="1.5" stroke-linecap="round" stroke-linejoin="round"></path>
            <path d="M30.8269664,16.1829262 C30.8269664,17.4618523 29.7904564,18.4983624 28.5119329,18.4983624 C27.2330067,18.4983624 26.1964966,17.4618523 26.1964966,16.1829262 C26.1964966,14.9044027 27.2330067,13.8678926 28.5119329,13.8678926 C29.7904564,13.8678926 30.8269664,14.9044027 30.8269664,16.1829262" id="Fill-41" fill="#FFFFFF"></path>
            <path d="M30.8269664,16.1829262 C30.8269664,17.4618523 29.7904564,18.4983624 28.5119329,18.4983624 C27.2330067,18.4983624 26.1964966,17.4618523 26.1964966,16.1829262 C26.1964966,14.9044027 27.2330067,13.8678926 28.5119329,13.8678926 C29.7904564,13.8678926 30.8269664,14.9044027 30.8269664,16.1829262 Z" id="Stroke-43" stroke="#212529" stroke-width="1.5" stroke-linecap="round" stroke-linejoin="round"></path>
            <path d="M21.4582685,20.9038792 L21.4582685,22.3483087" id="Stroke-45" stroke="#212529" stroke-width="1.5" stroke-linecap="round" stroke-linejoin="round"></path>
            <path d="M21.4582685,46.9022013 L21.4582685,48.3462282" id="Stroke-47" stroke="#212529" stroke-width="1.5" stroke-linecap="round" stroke-linejoin="round"></path>
            <path d="M7.73711409,34.6250336 L9.18154362,34.6250336" id="Stroke-49" stroke="#212529" stroke-width="1.5" stroke-linecap="round" stroke-linejoin="round"></path>
            <path d="M33.7354362,34.6250336 L35.1798658,34.6250336" id="Stroke-51" stroke="#212529" stroke-width="1.5" stroke-linecap="round" stroke-linejoin="round"></path>
            <path d="M31.1608322,24.9228322 L30.1396242,25.9440403" id="Stroke-53" stroke="#212529" stroke-width="1.5" stroke-linecap="round" stroke-linejoin="round"></path>
            <path d="M12.7773557,43.306349 L11.7561477,44.327557" id="Stroke-55" stroke="#212529" stroke-width="1.5" stroke-linecap="round" stroke-linejoin="round"></path>
            <path d="M11.7560671,24.9228322 L12.7772752,25.9440403" id="Stroke-57" stroke="#212529" stroke-width="1.5" stroke-linecap="round" stroke-linejoin="round"></path>
            <path d="M30.1395839,43.306349 L31.1607919,44.327557" id="Stroke-59" stroke="#212529" stroke-width="1.5" stroke-linecap="round" stroke-linejoin="round"></path>
        </g>
    </g>
</svg>