<?xml version="1.0" encoding="UTF-8"?>
<svg width="100px" height="100px" viewBox="0 0 100 100" version="1.1" xmlns="http://www.w3.org/2000/svg" xmlns:xlink="http://www.w3.org/1999/xlink">
    <!-- Generator: Sketch 57.1 (83088) - https://sketch.com -->
    <title>Atoms / Icons / Investing</title>
    <desc>Created with Sketch.</desc>
    <g id="Atoms-/-Icons-/-Investing" stroke="none" stroke-width="1" fill="none" fill-rule="evenodd">
        <rect id="Rectangle" fill="#212529" x="0" y="0" width="100" height="100"></rect>
        <g id="Group-35" transform="translate(28.000000, 20.000000)">
            <path d="M10.0934483,57.5056138 C13.0785517,58.8802345 16.5556552,59.6014759 20.2669655,59.6014759 C31.3822759,59.6014759 40.3926207,53.1334759 40.3926207,42.0181655 C40.3926207,32.7003724 32.7722069,24.4629931 27.8968966,17.1012 C24.2774483,11.6362345 16.2552414,11.6349931 12.6345517,17.0999586 C10.5341379,20.2692 7.99344828,23.4802345 5.75317241,26.8501655" id="Stroke-11" stroke="#FFFFFF" stroke-width="1.5" stroke-linecap="round" stroke-linejoin="round"></path>
            <path d="M3.19775172,31.0879448 C1.38533793,34.5013241 0.141475862,38.1091862 0.141475862,42.0182897 C0.141475862,47.0942897 2.02051034,51.2007724 5.12106207,54.1651862" id="Stroke-13" stroke="#FFFFFF" stroke-width="1.5" stroke-linecap="round" stroke-linejoin="round"></path>
            <path d="M18.8348276,15.0829655 C18.7384138,15.0842069 18.6428276,15.0854483 18.5476552,15.0871034" id="Stroke-19" stroke="#FFFFFF" stroke-width="1.5" stroke-linecap="round" stroke-linejoin="round"></path>
            <path d="M14.4218897,1.22089655 C18.7290621,2.80986207 24.1228552,5.35758621 33.9293379,2.06627586 C33.9293379,2.06627586 26.6362345,15.4193793 26.3933379,15.162 C26.331269,15.0970345 25.5165103,15.0651724 24.3355448,15.0535862" id="Stroke-21" stroke="#FFFFFF" stroke-width="1.5" stroke-linecap="round" stroke-linejoin="round"></path>
            <path d="M10.4195172,0.206606897 C10.4894483,0.210744828 10.5593793,0.215710345 10.6297241,0.221917241" id="Stroke-23" stroke="#FFFFFF" stroke-width="1.5" stroke-linecap="round" stroke-linejoin="round"></path>
            <path d="M16.788869,15.1140414 C15.296731,15.1396966 14.2378345,15.1620414 14.2378345,15.1620414 C10.3481793,10.5399724 5.24321379,2.06631724 5.24321379,2.06631724 C6.42004138,1.13073103 7.50335172,0.601489655 8.55107586,0.359006897" id="Stroke-25" stroke="#FFFFFF" stroke-width="1.5" stroke-linecap="round" stroke-linejoin="round"></path>
            <path d="M27.3533379,15.2284138 C30.0322345,12.0136552 31.6394069,10.4068966 38.0689241,17.9077241 C44.4980276,25.4085517 44.4980276,20.0503448 44.4980276,20.0503448" id="Stroke-27" stroke="#FFFFFF" stroke-width="1.5" stroke-linecap="round" stroke-linejoin="round"></path>
            <path d="M33.7824828,20.586331 C33.7824828,16.8361241 31.1035862,10.942469 26.8175172,15.2285379" id="Stroke-29" stroke="#FFFFFF" stroke-width="1.5" stroke-linecap="round" stroke-linejoin="round"></path>
            <path d="M20.6651586,49.4750483 C19.8412966,49.4750483 19.1713655,48.8051172 19.1713655,47.981669 L19.1713655,46.5991862 C18.060331,46.5073241 16.9377103,46.2218069 16.0153655,45.7898069 C15.2544,45.4327034 14.8939862,44.569531 15.1766069,43.7808414 C15.4116414,43.1258069 16.0195034,42.697531 16.6960552,42.697531 C16.9281931,42.697531 17.1537103,42.7467724 17.3668138,42.8444276 C17.9949517,43.1311862 18.9996414,43.4729793 20.2145379,43.4729793 C21.8486069,43.4729793 22.9464,42.6131172 22.9464,41.3328414 C22.9464,40.165531 22.1361931,39.3611172 20.1499862,38.5558759 C17.5381241,37.5317379 15.1149517,36.1604276 15.1149517,33.1070483 C15.1149517,30.6156 16.7668138,28.6819448 19.3687448,28.0633241 L19.3687448,26.6001517 C19.3687448,25.7762897 20.0386759,25.1059448 20.8625379,25.1059448 C21.6864,25.1059448 22.356331,25.7762897 22.356331,26.6001517 L22.356331,27.8767034 C23.2335724,27.9565655 24.0462621,28.1481517 24.7795034,28.4481517 C25.5719172,28.7725655 25.9670897,29.6953241 25.6600552,30.5051172 C25.4212966,31.1353241 24.8299862,31.5420828 24.1542621,31.5424966 C23.9411586,31.5424966 23.7330207,31.5011172 23.5339862,31.4200138 C22.7986759,31.1196 21.9946759,30.9669103 21.144331,30.9669103 C19.3997793,30.9669103 18.7782621,31.897531 18.7782621,32.7689793 C18.7782621,33.8171172 19.4759172,34.4088414 21.888331,35.4069103 C25.2168828,36.7641517 26.6386759,38.4780828 26.6386759,41.1358759 C26.6386759,43.7129793 24.8713655,45.7864966 22.1875034,46.4320138 L22.1875034,47.981669 C22.1875034,48.8051172 21.5175724,49.4750483 20.6937103,49.4750483 L20.6651586,49.4750483 Z" id="Fill-31" fill="#E1DED4"></path>
            <path d="M20.8625379,24.4854207 C19.696469,24.4854207 18.7480552,25.4338345 18.7480552,26.5999034 L18.7480552,27.5921793 C16.1647448,28.3994897 14.4942621,30.5119034 14.4942621,33.1072138 C14.4942621,36.5421103 17.2422621,38.0822483 19.9302621,39.1361793 C22.1395034,40.0320414 22.3257103,40.7400414 22.3257103,41.3330069 C22.3257103,42.4543862 21.1886069,42.8524552 20.2145379,42.8524552 C19.1109517,42.8524552 18.196469,42.540869 17.6241931,42.2793517 C17.3299862,42.1452828 17.0175724,42.0770069 16.6960552,42.0770069 C15.7584,42.0770069 14.9155034,42.6699724 14.5989517,43.5534207 C14.2008828,44.6632138 14.6995034,45.8582483 15.7521931,46.3514897 C16.5806069,46.7396276 17.5579862,47.0172828 18.5506759,47.1546621 L18.5506759,47.9814207 C18.5506759,49.1474897 19.4995034,50.0959034 20.6651586,50.0959034 L20.6937103,50.0959034 C21.8597793,50.0959034 22.8081931,49.1474897 22.8081931,47.9814207 L22.8081931,46.9055586 C25.5098483,46.0701103 27.2589517,43.8563172 27.2589517,41.1356276 C27.2589517,37.4056966 24.5126069,35.8068 22.1200552,34.8306621 C19.5888828,33.7841793 19.3989517,33.3348 19.3989517,32.7691448 C19.3989517,32.4136966 19.5694345,31.5877655 21.144331,31.5877655 C21.9135724,31.5877655 22.6385379,31.724731 23.2993655,31.9945241 C23.5728828,32.1062483 23.860469,32.1633517 24.1542621,32.1633517 C25.0906759,32.1633517 25.9095724,31.5985241 26.2406069,30.7254207 C26.6655724,29.6036276 26.1156414,28.3245931 25.0149517,27.8735586 C24.3851586,27.6157655 23.7032276,27.4324552 22.9770207,27.3252828 L22.9770207,26.5999034 C22.9770207,25.4338345 22.0281931,24.4854207 20.8625379,24.4854207 M20.8625379,25.7268 C21.3446069,25.7268 21.7356414,26.1174207 21.7356414,26.5999034 L21.7356414,28.4594897 C22.9070897,28.4983862 23.8215724,28.7268 24.544469,29.0226621 C25.0360552,29.2237655 25.2677793,29.7885931 25.0795034,30.2855586 C24.9288828,30.6836276 24.5535724,30.9219724 24.1542621,30.9219724 C24.0259862,30.9219724 23.8952276,30.8971448 23.7686069,30.8454207 C23.1292966,30.5839034 22.2607448,30.3463862 21.144331,30.3463862 C18.9748138,30.3463862 18.1575724,31.6428 18.1575724,32.7691448 C18.1575724,34.2343862 19.200331,34.9663862 21.6508138,35.9801793 C24.5527448,37.1640414 26.0175724,38.6284552 26.0175724,41.1356276 C26.0175724,43.3610069 24.468331,45.4461103 21.5668138,45.924869 L21.5668138,47.9814207 C21.5668138,48.4634897 21.1761931,48.8545241 20.6937103,48.8545241 L20.6651586,48.8545241 C20.1830897,48.8545241 19.7920552,48.4634897 19.7920552,47.9814207 L19.7920552,46.0092828 C18.5399172,45.9877655 17.2550897,45.684869 16.2789517,45.2276276 C15.8126069,45.0091448 15.5870897,44.4753517 15.7608828,43.9908 L15.7675034,43.9725931 C15.9135724,43.5654207 16.2934345,43.3183862 16.6960552,43.3183862 C16.8338483,43.3183862 16.9741241,43.3473517 17.1086069,43.4085931 C18.0011586,43.8161793 19.0786759,44.0938345 20.2145379,44.0938345 C22.2148138,44.0938345 23.5670897,42.9385241 23.5670897,41.3330069 C23.5670897,39.7833517 22.4680552,38.8254207 20.3833655,37.9804552 C17.5099862,36.8541103 15.7356414,35.5576966 15.7356414,33.1072138 C15.7356414,30.7692828 17.3970207,28.9945241 19.9894345,28.5720414 L19.9894345,26.5999034 C19.9894345,26.1174207 20.3800552,25.7268 20.8625379,25.7268" id="Fill-33" fill="#FFFFFF"></path>
        </g>
    </g>
</svg>