<?xml version="1.0" encoding="UTF-8"?>
<svg width="100px" height="100px" viewBox="0 0 100 100" version="1.1" xmlns="http://www.w3.org/2000/svg" xmlns:xlink="http://www.w3.org/1999/xlink">
    <!-- Generator: Sketch 57.1 (83088) - https://sketch.com -->
    <title>Atoms / Icons / Scalability</title>
    <desc>Created with Sketch.</desc>
    <g id="Atoms-/-Icons-/-Scalability" stroke="none" stroke-width="1" fill="none" fill-rule="evenodd">
        <rect id="Rectangle" fill="#F4F3EE" x="0" y="0" width="100" height="100"></rect>
        <g id="Group-35" transform="translate(19.000000, 20.000000)">
            <path d="M12.8874636,19.2360267 L12.8874636,49.3867972 L3.12444815,49.3867972 L3.12444815,19.2360267 C3.12444815,18.6025406 3.63506872,18.09192 4.26855477,18.09192 L11.7496043,18.09192 C12.376843,18.09192 12.8874636,18.6025406 12.8874636,19.2360267" id="Fill-1" fill="#E1DED4"></path>
            <path d="M28.61212,11.2254477 L28.61212,49.3866306 L18.8491045,49.3866306 L18.8491045,11.2254477 C18.8491045,10.6598501 19.303915,10.1979592 19.8699292,10.1979592 L27.5908788,10.1979592 C28.156893,10.1979592 28.61212,10.6598501 28.61212,11.2254477" id="Fill-3" fill="#E1DED4"></path>
            <path d="M44.2104956,27.5215743 L44.2104956,1.11299459 C44.2104956,0.613619325 43.8056643,0.208371512 43.3058726,0.208371512 L35.3508538,0.208371512 C34.8514786,0.208371512 34.4466472,0.613619325 34.4466472,1.11299459 L34.4466472,31.7435652" id="Fill-5" fill="#E1DED4"></path>
            <path d="M60.8566014,43.1685131 C60.8566014,51.8265723 53.8378592,58.8453145 45.1802166,58.8453145 C36.5225739,58.8453145 29.5038317,51.8265723 29.5038317,43.1685131 C29.5038317,34.5108705 36.5225739,27.4921283 45.1802166,27.4921283 C53.8378592,27.4921283 60.8566014,34.5108705 60.8566014,43.1685131" id="Fill-13" fill="#E1DED4"></path>
            <path d="M40.4640983,49.4830487 C39.9426489,49.4830487 39.4524365,49.2802166 39.0838401,48.9112037 C38.3229071,48.1506872 38.3229071,46.9120367 39.0838401,46.1511037 L44.4112037,40.8237401 L43.2175344,40.8237401 C42.1413161,40.8237401 41.2658476,39.9482716 41.2658476,38.8720533 C41.2658476,38.3506039 41.4690962,37.860808 41.8372761,37.4917951 C42.2054561,37.1236152 42.6956685,36.920783 43.2175344,36.920783 L49.1229904,36.9203665 C49.6365264,36.9203665 50.1396501,37.1290296 50.5032486,37.4922116 C50.8714286,37.860808 51.0746772,38.3506039 51.0746772,38.8716368 L51.0742607,44.7770929 C51.0742607,45.8533111 50.1987922,46.7287797 49.1225739,46.7287797 C48.6011245,46.7287797 48.1109121,46.525531 47.7423157,46.1569346 C47.3733028,45.7883382 47.1708871,45.2981258 47.1708871,44.7766764 L47.1713036,43.5842566 L41.84394,48.9112037 C41.4753436,49.2802166 40.9851312,49.4830487 40.4640983,49.4830487" id="Fill-17" fill="#F4F3EE"></path>
            <path d="M49.1227822,36.2955852 L49.1227822,36.2955852 L43.2173261,36.2960017 C42.528863,36.2960017 41.8820491,36.5642232 41.3955852,37.0502707 C40.9091212,37.5363182 40.6413161,38.1835485 40.6413161,38.8724282 C40.6413161,40.1918784 41.6388172,41.2835069 42.9195335,41.4313619 L38.6417326,45.7095793 C38.1552686,46.1960433 37.8870471,46.8428571 37.8870471,47.5313203 C37.8874636,48.2193669 38.1552686,48.8665973 38.6417326,49.3530612 C39.1286131,49.8399417 39.7758434,50.1077468 40.46389,50.1077468 C41.1519367,50.1077468 41.799167,49.8399417 42.285631,49.3530612 L46.5630154,45.0756768 C46.6288213,45.6504373 46.8845481,46.183132 47.3006247,46.5987922 C47.7870887,47.0852561 48.434319,47.3534777 49.1223657,47.3534777 C50.5430237,47.3534777 51.6987922,46.1977093 51.6987922,44.7770512 L51.6992087,38.8724282 C51.6992087,38.1835485 51.4309871,37.5367347 50.9445231,37.0502707 C50.4580591,36.5638067 49.8108288,36.2955852 49.1227822,36.2955852 M49.1227822,37.5450646 C49.4747189,37.5450646 49.8124948,37.6850062 50.0611412,37.9340691 C50.3102041,38.1827155 50.4497293,38.520075 50.4497293,38.8720117 L50.4493128,44.7770512 C50.4493128,45.5100791 49.8553936,46.1039983 49.1223657,46.1039983 C48.3893378,46.1039983 47.7950021,45.5096626 47.7954186,44.7770512 L47.7958351,42.0756768 L41.4022491,48.4692628 C41.1427738,48.728738 40.8033319,48.8582674 40.46389,48.8582674 C40.1244481,48.8582674 39.7845898,48.728738 39.525531,48.4692628 C39.0074136,47.9511454 39.0069971,47.1114952 39.525531,46.5929613 L45.9195335,40.1985423 L43.2173261,40.1989588 C42.4842982,40.1989588 41.8907955,39.6050396 41.8907955,38.8724282 C41.8907955,38.5059142 42.0390671,38.1739692 42.2789671,37.9340691 C42.5192836,37.6933361 42.8508122,37.545481 43.2173261,37.545481 L49.1227822,37.5450646" id="Fill-19" fill="#212529"></path>
            <path d="M57.1174927,33.0067472 C59.4494377,35.743107 60.856768,39.2916285 60.856768,43.1683465 C60.856768,51.8268222 53.8380258,58.8451479 45.1799667,58.8451479 C36.522324,58.8451479 29.5035818,51.8268222 29.5035818,43.1683465 C29.5035818,34.5107039 36.522324,27.4923782 45.1799667,27.4923782 C46.3498959,27.4923782 47.4898376,27.6202416 48.586464,27.8630571" id="Stroke-21" stroke="#212529" stroke-width="1.02040816" stroke-linecap="round" stroke-linejoin="round"></path>
            <path d="M51.8594752,28.9821324 C52.0194086,29.0579342 52.177676,29.1354019 52.3342774,29.2162016" id="Stroke-23" stroke="#212529" stroke-width="1.02040816" stroke-linecap="round" stroke-linejoin="round"></path>
            <polyline id="Stroke-25" stroke="#212529" stroke-width="1.02040816" stroke-linecap="round" stroke-linejoin="round" points="0.208246564 49.3866306 3.12411495 49.3866306 12.8875469 49.3866306 18.848813 49.3866306 28.6122449 49.3866306 30.6422324 49.3866306"></polyline>
            <path d="M12.8874636,47.3716785 L12.8874636,49.3866722 L3.12444815,49.3866722 L3.12444815,19.2359017 C3.12444815,18.6024157 3.63506872,18.0917951 4.26855477,18.0917951 L11.7496043,18.0917951 C12.376843,18.0917951 12.8874636,18.6024157 12.8874636,19.2359017 L12.8874636,43.1705123" id="Stroke-27" stroke="#212529" stroke-width="1.02040816" stroke-linecap="round" stroke-linejoin="round"></path>
            <path d="M18.8489379,16.9660558 L18.8489379,11.225531 C18.8489379,10.6595169 19.3041649,10.1980425 19.8701791,10.1980425 L27.5907122,10.1980425 C28.1567264,10.1980425 28.6119534,10.6595169 28.6119534,11.225531 L28.6119534,49.3867139 L18.8489379,49.3867139 L18.8489379,28.5653894" id="Stroke-29" stroke="#212529" stroke-width="1.02040816" stroke-linecap="round" stroke-linejoin="round"></path>
            <path d="M18.8489379,24.2217409 L18.8489379,21.7390254" id="Stroke-31" stroke="#212529" stroke-width="1.02040816" stroke-linecap="round" stroke-linejoin="round"></path>
            <path d="M44.2104956,27.5215743 L44.2104956,1.11299459 C44.2104956,0.613619325 43.8056643,0.208371512 43.3058726,0.208371512 L35.3508538,0.208371512 C34.8514786,0.208371512 34.4466472,0.613619325 34.4466472,1.11299459 L34.4466472,31.7435652" id="Stroke-33" stroke="#212529" stroke-width="1.02040816" stroke-linecap="round" stroke-linejoin="round"></path>
        </g>
    </g>
</svg>