<?xml version="1.0" encoding="UTF-8"?>
<svg width="100px" height="100px" viewBox="0 0 100 100" version="1.1" xmlns="http://www.w3.org/2000/svg" xmlns:xlink="http://www.w3.org/1999/xlink">
    <!-- Generator: Sketch 57.1 (83088) - https://sketch.com -->
    <title>Atoms / Icons / Professional Service</title>
    <desc>Created with Sketch.</desc>
    <g id="Atoms-/-Icons-/-Professional-Service" stroke="none" stroke-width="1" fill="none" fill-rule="evenodd">
        <rect id="Rectangle" fill="#212529" x="0" y="0" width="100" height="100"></rect>
        <g id="Group-93" transform="translate(20.000000, 25.000000)">
            <path d="M35.2699865,17.8178108 L35.6924189,17.8178108 L35.2699865,17.8178108 Z" id="Fill-1" fill="#FFFFFF"></path>
            <g id="Group-92" transform="translate(0.000000, 0.052297)">
                <path d="M22.2343378,13.4984189 L7.48122973,28.251527 L2.30704054,23.0773378 C1.72447297,22.4943649 1.72447297,21.5501757 2.30704054,20.9676081 L14.9504189,8.32382432 C15.5329865,7.74166216 16.4775811,7.74166216 17.0601486,8.32382432 L22.2343378,13.4984189 Z" id="Fill-10" fill="#E1DED4"></path>
                <path d="M38.235973,13.8297568 L53.015027,28.6088108 L58.2439459,23.3802973 C58.7961081,22.8273243 58.7961081,21.9317838 58.2439459,21.3796216 L45.4651622,8.60124324 C44.9125946,8.04867568 44.0170541,8.04867568 43.4648919,8.60124324 L38.235973,13.8297568 Z" id="Fill-12" fill="#E1DED4"></path>
                <path d="M38.1377838,17.7646622 L41.9485946,17.7646622" id="Stroke-14" stroke="#FFFFFF" stroke-width="1.5" stroke-linecap="round" stroke-linejoin="round"></path>
                <path d="M35.9666351,17.7646622 L36.2196081,17.7646622" id="Stroke-16" stroke="#FFFFFF" stroke-width="1.5" stroke-linecap="round" stroke-linejoin="round"></path>
                <path d="M37.7759189,34.4670405 L40.8022703,37.4933919 C41.7188919,38.4100135 43.2047027,38.4100135 44.1209189,37.4933919 L44.2814595,37.3328514 C45.1980811,36.4166351 45.1980811,34.9308243 44.2814595,34.0146081 L35.2186216,24.9513649 C34.0997027,23.8324459 32.2855135,23.8324459 31.1665946,24.9513649 L29.7136216,26.4043378 L29.1436216,26.9682568 C27.2086216,28.8821757 24.0910541,28.8736622 22.1665946,26.9492027 L29.7598378,19.3559595 C30.3176757,18.7819054 31.3287568,18.0177162 33.3063243,17.8158243" id="Stroke-18" stroke="#FFFFFF" stroke-width="1.5" stroke-linecap="round" stroke-linejoin="round"></path>
                <path d="M38.0198108,34.7109324 L42.0333243,38.7244459 C42.9499459,39.6410676 42.9499459,41.1268784 42.0333243,42.0430946 L41.8727838,42.2036351 C40.9565676,43.1202568 39.4707568,43.1202568 38.5545405,42.2036351 L35.739,39.3880946" id="Stroke-28" stroke="#FFFFFF" stroke-width="1.5" stroke-linecap="round" stroke-linejoin="round"></path>
                <path d="M35.1176351,38.766973 L38.5007432,42.1504865 C39.4173649,43.0662973 39.4173649,44.5525135 38.5007432,45.4687297 L38.3402027,45.6292703 C37.4239865,46.5454865 35.9381757,46.5454865 35.0219595,45.6292703 L32.3706081,42.9783243" id="Stroke-30" stroke="#FFFFFF" stroke-width="1.5" stroke-linecap="round" stroke-linejoin="round"></path>
                <path d="M33.3025946,43.9101486 L34.7543514,45.3615 C35.6705676,46.2781216 35.6705676,47.7639324 34.7543514,48.6805541 C33.8377297,49.5963649 32.3519189,49.5963649 31.4357027,48.6805541 L28.9582703,46.2027162" id="Stroke-32" stroke="#FFFFFF" stroke-width="1.5" stroke-linecap="round" stroke-linejoin="round"></path>
                <path d="M16.0166351,31.7764865 C16.9048784,31.1598649 18.1336622,31.2478378 18.9250135,32.0391892 L19.1171757,32.2313514 C20.0070405,33.1212162 20.0070405,34.5640541 19.1171757,35.4539189 L16.3442027,38.2272973 C15.4539324,39.1171622 14.0110946,39.1171622 13.1212297,38.2272973 L12.9290676,38.0351351 C12.0387973,37.1452703 12.0387973,35.7024324 12.9290676,34.8121622 L14.4987973,33.2424324" id="Stroke-50" stroke="#FFFFFF" stroke-width="1.5" stroke-linecap="round" stroke-linejoin="round"></path>
                <path d="M15.5403649,43.7387027 C15.3157703,43.6304595 15.1053649,43.4832973 14.9188784,43.2968108 L14.7226622,43.1005946 C13.8340135,42.2115405 13.8340135,40.7711351 14.7226622,39.8820811 L20.4429324,34.1618108 C21.3315811,33.2731622 22.7723919,33.2731622 23.6614459,34.1618108 L23.8576622,34.358027 C24.7463108,35.2470811 24.7463108,36.6878919 23.8576622,37.5769459 L20.7336081,40.7014054" id="Stroke-52" stroke="#FFFFFF" stroke-width="1.5" stroke-linecap="round" stroke-linejoin="round"></path>
                <path d="M26.6858514,39.470473 C27.0839595,40.3214189 26.9319324,41.3657432 26.2297703,42.0683108 L22.5904459,45.7072297 C21.6940946,46.6039865 20.2399054,46.6039865 19.3431486,45.7072297 L19.1757162,45.5397973 C18.2789595,44.6430405 18.2789595,43.1892568 19.1757162,42.2920946 L22.8146351,38.6531757 C23.4653108,38.0029054 24.4090946,37.8241216 25.2207162,38.1176351" id="Stroke-54" stroke="#FFFFFF" stroke-width="1.5" stroke-linecap="round" stroke-linejoin="round"></path>
                <path d="M28.8092838,46.3520676 L27.1455,48.0158514 C26.2402297,48.9211216 24.7722568,48.9211216 23.8669865,48.0158514 L23.7307703,47.8792297 C22.8255,46.9739595 22.8255,45.5059865 23.7307703,44.6007162 L25.3941486,42.9369324 C26.2998243,42.0316622 27.7673919,42.0316622 28.6730676,42.9369324 L28.8092838,43.0735541 C29.7145541,43.9788243 29.7145541,45.4467973 28.8092838,46.3520676 Z" id="Stroke-56" stroke="#FFFFFF" stroke-width="1.5" stroke-linecap="round" stroke-linejoin="round"></path>
                <path d="M29.049,19.8522568 L28.5548108,19.3580676 C27.2907568,18.0936081 25.2406216,18.0936081 23.9765676,19.3580676 L23.8435946,19.4906351 C23.319,20.0156351 22.4684595,20.0156351 21.9434595,19.4906351 L19.146973,16.6941486" id="Stroke-58" stroke="#FFFFFF" stroke-width="1.5" stroke-linecap="round" stroke-linejoin="round"></path>
                <path d="M9.64954054,28.3930946 L8.54886486,27.2924189" id="Stroke-60" stroke="#FFFFFF" stroke-width="1.5" stroke-linecap="round" stroke-linejoin="round"></path>
                <path d="M11.3151081,30.0586622 L11.1809189,29.924473" id="Stroke-62" stroke="#FFFFFF" stroke-width="1.5" stroke-linecap="round" stroke-linejoin="round"></path>
                <path d="M14.4989595,33.2425135 L12.6450405,31.3885946" id="Stroke-64" stroke="#FFFFFF" stroke-width="1.5" stroke-linecap="round" stroke-linejoin="round"></path>
                <path d="M43.4472162,33.1799595 L50.4055946,26.2219865" id="Stroke-66" stroke="#FFFFFF" stroke-width="1.5" stroke-linecap="round" stroke-linejoin="round"></path>
                <path d="M4.191,27.537527 L0.0919459459,23.438473" id="Stroke-68" stroke="#FFFFFF" stroke-width="1.5" stroke-linecap="round" stroke-linejoin="round"></path>
                <polyline id="Stroke-70" stroke="#FFFFFF" stroke-width="1.5" stroke-linecap="round" stroke-linejoin="round" points="21.8231757 14.0182297 6.2475 29.5939054 5.53439189 28.8812027"></polyline>
                <path d="M7.0502027,23.8132703 C7.0502027,24.5519189 6.45101351,25.1515135 5.71195946,25.1515135 C4.97290541,25.1515135 4.37371622,24.5519189 4.37371622,23.8132703 C4.37371622,23.0742162 4.97290541,22.475027 5.71195946,22.475027 C6.45101351,22.475027 7.0502027,23.0742162 7.0502027,23.8132703" id="Fill-72" fill="#FFFFFF"></path>
                <path d="M7.0502027,23.8132703 C7.0502027,24.5519189 6.45101351,25.1515135 5.71195946,25.1515135 C4.97290541,25.1515135 4.37371622,24.5519189 4.37371622,23.8132703 C4.37371622,23.0742162 4.97290541,22.475027 5.71195946,22.475027 C6.45101351,22.475027 7.0502027,23.0742162 7.0502027,23.8132703 Z" id="Stroke-74" stroke="#FFFFFF" stroke-width="1.5" stroke-linecap="round" stroke-linejoin="round"></path>
                <polyline id="Stroke-76" stroke="#FFFFFF" stroke-width="1.5" stroke-linecap="round" stroke-linejoin="round" points="38.2019189 14.0182297 53.7775946 29.5939054 59.9332703 23.4382297"></polyline>
                <path d="M52.9748514,23.8132703 C52.9748514,24.5519189 53.5740405,25.1515135 54.3130946,25.1515135 C55.0521486,25.1515135 55.6509324,24.5519189 55.6509324,23.8132703 C55.6509324,23.0742162 55.0521486,22.475027 54.3130946,22.475027 C53.5740405,22.475027 52.9748514,23.0742162 52.9748514,23.8132703" id="Fill-78" fill="#FFFFFF"></path>
                <path d="M52.9748514,23.8132703 C52.9748514,24.5519189 53.5740405,25.1515135 54.3130946,25.1515135 C55.0521486,25.1515135 55.6509324,24.5519189 55.6509324,23.8132703 C55.6509324,23.0742162 55.0521486,22.475027 54.3130946,22.475027 C53.5740405,22.475027 52.9748514,23.0742162 52.9748514,23.8132703 Z" id="Stroke-80" stroke="#FFFFFF" stroke-width="1.5" stroke-linecap="round" stroke-linejoin="round"></path>
                <path d="M30.8846351,0.968837838 L30.8846351,0.0396486486" id="Stroke-82" stroke="#E1DED4" stroke-width="1.5" stroke-linecap="round" stroke-linejoin="round"></path>
                <path d="M30.8846351,9.71355405 L30.8846351,3.7245" id="Stroke-84" stroke="#E1DED4" stroke-width="1.5" stroke-linecap="round" stroke-linejoin="round"></path>
                <path d="M39.0760541,5.43263514 L42.4437568,0.0561486486" id="Stroke-86" stroke="#E1DED4" stroke-width="1.5" stroke-linecap="round" stroke-linejoin="round"></path>
                <path d="M36.3949865,9.71355405 L37.5706622,7.83612162" id="Stroke-88" stroke="#E1DED4" stroke-width="1.5" stroke-linecap="round" stroke-linejoin="round"></path>
                <path d="M25.3740405,9.71355405 L21.9110676,4.18422973" id="Stroke-90" stroke="#E1DED4" stroke-width="1.5" stroke-linecap="round" stroke-linejoin="round"></path>
            </g>
        </g>
    </g>
</svg>