<?xml version="1.0" encoding="UTF-8"?>
<svg width="100px" height="100px" viewBox="0 0 100 100" version="1.1" xmlns="http://www.w3.org/2000/svg" xmlns:xlink="http://www.w3.org/1999/xlink">
    <!-- Generator: Sketch 57.1 (83088) - https://sketch.com -->
    <title>Atoms / Icons / Others</title>
    <desc>Created with Sketch.</desc>
    <g id="Atoms-/-Icons-/-Others" stroke="none" stroke-width="1" fill="none" fill-rule="evenodd">
        <rect id="Rectangle" fill="#212529" x="0" y="0" width="100" height="100"></rect>
        <g id="Group-51" transform="translate(20.000000, 32.000000)">
            <path d="M19.2753906,23.800293 L19.8894694,25.3203265 L19.9862041,25.6570612 C20.2947755,26.7362449 19.5531429,27.8329796 18.4355918,27.9476735 L15.1102857,28.2884898 L14.6617143,26.688898 L13.8820801,22.8767347" id="Path" stroke="#FFFFFF" stroke-width="1.5" stroke-linecap="round" stroke-linejoin="round"></path>
            <path d="M18.9404082,36.1659592 L16.2220408,36.083102 C14.555102,36.032898 13.1081633,34.9177959 12.6346939,33.3182041 L10.0269388,24.5075918 L9.36244898,22.2602449 L9.20816327,22.0818776 L14.8297959,22.1198367 L16.0693878,26.5994286 L16.6526531,28.7088163 L20.3493878,33.3520816 C21.2689796,34.5075918 20.4167347,36.210449 18.9404082,36.1659592" id="Fill-7" fill="#212529"></path>
            <path d="M18.2875102,30.6218776 L16.6524082,28.5688163 L14.8299592,21.9798367 L9.2075102,21.9418776 L9.36261224,22.1198367 L12.6348571,33.1790204 C13.1083265,34.7782041 14.554449,35.892898 16.2213878,35.9435102 L18.9397551,36.0259592 C20.1107755,36.0614694 20.889551,34.9977959 20.7030204,33.9798367" id="Stroke-11" stroke="#FFFFFF" stroke-width="1.5" stroke-linecap="round" stroke-linejoin="round"></path>
            <path d="M12.1451429,10.6892245 C12.1492245,10.6892245 12.1533061,10.6888163 12.1569796,10.6888163" id="Fill-13" fill="#FFFFFF"></path>
            <path d="M11.3329796,10.715551 C11.3705306,10.7147347 11.4080816,10.7135102 11.4452245,10.7122857" id="Stroke-21" stroke="#FFFFFF" stroke-width="1.5" stroke-linecap="round" stroke-linejoin="round"></path>
            <path d="M5.04053061,22.6626939 C1.62665306,21.968 0.256040816,19.3333061 0.120938776,17.1516735 C0.114,17.0308571 0.109510204,16.910449 0.109510204,16.7924898 C0.109510204,13.463102 2.80828571,10.7643265 6.13808163,10.7643265 C7.44012245,10.7643265 8.65522449,10.7618776 9.80053061,10.7463673" id="Stroke-23" stroke="#FFFFFF" stroke-width="1.5" stroke-linecap="round" stroke-linejoin="round"></path>
            <path d="M15.6051429,10.4500816 C20.5120816,9.91538776 24.3712653,8.47702041 29.5512653,4.61253061 C30.5875918,3.83906122 31.6124898,3.04273469 32.4986122,2.10069388 C33.3435102,1.20028571 34.385551,0.109673469 35.7186122,0.109673469 C39.125551,0.109673469 41.8871837,7.48518367 41.8871837,16.5823265 C41.8871837,16.6806939 41.8871837,16.7786531 41.8859592,16.8766122 L41.8859592,17.0182449 C41.7806531,27.8664082 37.8063673,35.581102 33.8790204,32.3092653 C30.5398367,29.6692653 27.4120816,25.8941633 23.3818776,24.6431429 C19.9692245,23.5851837 16.2851429,23.281102 12.7382041,23.043551 C11.030449,22.9296735 9.3235102,22.8566122 7.61412245,22.8406939" id="Stroke-25" stroke="#FFFFFF" stroke-width="1.5" stroke-linecap="round" stroke-linejoin="round"></path>
            <path d="M30.906898,6.27636735 C32.0375102,2.51677551 33.7726122,0.109836735 35.7187347,0.109836735 C39.1252653,0.109836735 41.886898,7.48534694 41.886898,16.5824898 C41.886898,25.6792245 39.1252653,33.0547347 35.7187347,33.0547347 C32.9428163,33.0547347 30.5946531,28.1563673 29.8207755,21.4192245 C29.6440408,19.8898367 29.5501633,18.2645306 29.5501633,16.5824898 C29.5501633,15.0151429 29.6313878,13.4984082 29.7856735,12.0637143" id="Stroke-27" stroke="#FFFFFF" stroke-width="1.5" stroke-linecap="round" stroke-linejoin="round"></path>
            <path d="M34.597102,16.6526531 C34.597102,19.2853061 32.4632245,21.4191837 29.8305714,21.4191837 L29.8207755,21.4191837 C29.6440408,19.8897959 29.5501633,18.2644898 29.5501633,16.582449 C29.5501633,14.9506122 29.6387347,13.3734694 29.8052653,11.8857143 L29.8305714,11.8857143 C32.4632245,11.8857143 34.597102,14.0195918 34.597102,16.6526531" id="Fill-29" fill="#FFFFFF"></path>
            <path d="M34.597102,17.0731429 C34.597102,19.473551 32.4632245,21.4188571 29.8305714,21.4188571 L29.8207755,21.4188571 C29.6440408,20.0241633 29.5501633,18.5429388 29.5501633,17.0090612 C29.5501633,15.5213061 29.6387347,14.0833469 29.8052653,12.7270204 L29.8305714,12.7270204 C32.4632245,12.7270204 34.597102,14.6723265 34.597102,17.0731429" id="Fill-31" fill="#E1DED4"></path>
            <path d="M29.8206939,21.4190612 C29.6439592,19.8896735 29.5500816,18.2643673 29.5500816,16.5823265 C29.5500816,14.9504898 29.6386531,13.3733469 29.8051837,11.886 L29.8304898,11.886 C30.2974286,11.886 30.7488571,11.9533469 31.1753878,12.0782449" id="Stroke-33" stroke="#FFFFFF" stroke-width="1.5" stroke-linecap="round" stroke-linejoin="round"></path>
            <path d="M33.4487347,13.5487755 C34.1646531,14.3826531 34.596898,15.4671429 34.596898,16.652449 C34.596898,18.31 33.7511837,19.77 32.4675102,20.6238776" id="Stroke-35" stroke="#FFFFFF" stroke-width="1.5" stroke-linecap="round" stroke-linejoin="round"></path>
            <path d="M9.38126531,22.8767347 C8.61595918,21.2518367 8.17065306,19.3053061 8.17065306,17.2130612 C8.17065306,14.7640816 8.78126531,12.5142857 9.80044898,10.7461224" id="Stroke-37" stroke="#FFFFFF" stroke-width="1.5" stroke-linecap="round" stroke-linejoin="round"></path>
            <path d="M50.7841224,7.04804082 L52.2233061,6.37946939" id="Stroke-39" stroke="#FFFFFF" stroke-width="1.5" stroke-linecap="round" stroke-linejoin="round"></path>
            <path d="M44.7605306,9.84738776 L49.1613469,7.80208163" id="Stroke-41" stroke="#FFFFFF" stroke-width="1.5" stroke-linecap="round" stroke-linejoin="round"></path>
            <path d="M50.9413469,16.5302857 L59.8409388,16.1645714" id="Stroke-43" stroke="#FFFFFF" stroke-width="1.5" stroke-linecap="round" stroke-linejoin="round"></path>
            <path d="M45.6266531,16.7486939 L48.4078776,16.6344082" id="Stroke-45" stroke="#FFFFFF" stroke-width="1.5" stroke-linecap="round" stroke-linejoin="round"></path>
            <path d="M54.1488571,29.3762449 L55.4092653,30.1517551" id="Stroke-47" stroke="#FFFFFF" stroke-width="1.5" stroke-linecap="round" stroke-linejoin="round"></path>
            <path d="M44.1757959,23.2390612 L51.0578367,27.4741633" id="Stroke-49" stroke="#FFFFFF" stroke-width="1.5" stroke-linecap="round" stroke-linejoin="round"></path>
        </g>
    </g>
</svg>