<?xml version="1.0" standalone="no"?>
<!DOCTYPE svg PUBLIC "-//W3C//DTD SVG 20010904//EN"
 "http://www.w3.org/TR/2001/REC-SVG-20010904/DTD/svg10.dtd">
<svg version="1.0" xmlns="http://www.w3.org/2000/svg"
 width="700.000000pt" height="700.000000pt" viewBox="0 0 700.000000 700.000000"
 preserveAspectRatio="xMidYMid meet">
<metadata>
Created by potrace 1.11, written by Peter Selinger 2001-2013
</metadata>
<g transform="translate(0.000000,700.000000) scale(0.100000,-0.100000)"
fill="#000000" stroke="none">
<path d="M3519 6996 c-2 -2 -44 -7 -92 -11 -48 -3 -96 -8 -105 -9 -9 -2 -44
-7 -77 -11 -32 -4 -68 -9 -80 -11 -11 -2 -45 -9 -75 -15 -30 -6 -68 -13 -85
-16 -64 -11 -265 -65 -370 -99 -289 -94 -586 -235 -830 -393 -66 -43 -244
-169 -255 -181 -3 -3 -36 -30 -75 -61 -112 -90 -248 -220 -366 -350 -81 -89
-238 -282 -233 -288 1 -2 475 -3 1052 -3 l1049 0 94 30 c177 57 337 87 534
102 193 14 519 -14 673 -59 18 -5 35 -10 37 -10 3 0 51 -14 107 -31 l102 -32
1052 -1 c699 -1 1050 1 1046 8 -61 105 -365 438 -517 566 -22 19 -49 42 -60
53 -36 33 -258 198 -330 244 -265 171 -533 300 -819 396 -132 44 -377 108
-460 121 -21 3 -41 7 -45 9 -3 2 -33 7 -66 11 -32 3 -62 8 -65 10 -3 2 -41 6
-85 10 -44 4 -89 9 -100 12 -23 5 -551 14 -556 9z"/>
<path d="M494 4863 c-7 -7 -24 -45 -39 -85 -15 -40 -31 -82 -36 -93 -26 -62
-95 -310 -113 -406 -2 -13 -7 -35 -10 -49 -7 -31 -15 -75 -21 -119 -3 -19 -7
-46 -9 -60 -3 -14 -7 -49 -11 -77 l-6 -51 681 0 c374 0 683 3 685 7 2 4 7 22
10 41 21 117 70 284 120 404 58 139 184 357 262 453 l34 42 -153 0 c-84 0
-429 1 -767 3 -473 1 -617 -1 -627 -10z"/>
<path d="M254 3203 c4 -27 9 -61 11 -78 3 -16 7 -46 10 -65 14 -97 53 -272 86
-389 43 -149 110 -332 123 -337 6 -2 352 -3 769 -2 l758 3 -32 45 c-167 229
-316 575 -355 820 -3 19 -8 38 -11 43 -2 4 -310 7 -684 7 l-681 0 6 -47z"/>
<path d="M867 1631 c26 -40 111 -149 171 -221 62 -73 337 -348 397 -397 365
-297 721 -499 1129 -643 49 -18 97 -33 105 -35 9 -2 45 -12 81 -23 111 -34
340 -86 425 -96 47 -6 68 -9 139 -21 173 -27 649 -27 866 0 25 3 210 32 264
41 16 3 32 6 35 8 3 2 22 7 41 10 32 5 104 23 240 60 74 20 285 93 337 117 23
10 44 19 47 19 14 0 232 106 366 178 36 19 135 81 220 138 251 167 415 304
619 520 82 86 270 315 290 352 9 18 -26 18 -1022 17 l-1032 -1 -50 -23 c-66
-30 -262 -86 -367 -105 -182 -33 -253 -39 -438 -38 -91 1 -174 3 -185 6 -11 2
-49 7 -85 11 -140 16 -442 94 -515 133 -27 15 -128 17 -1062 17 l-1033 1 17
-25z"/>
</g>
</svg>
