<?xml version="1.0" standalone="no"?>
<!DOCTYPE svg PUBLIC "-//W3C//DTD SVG 20010904//EN"
 "http://www.w3.org/TR/2001/REC-SVG-20010904/DTD/svg10.dtd">
<svg version="1.0" xmlns="http://www.w3.org/2000/svg"
 width="260.000000pt" height="260.000000pt" viewBox="0 0 260.000000 260.000000"
 preserveAspectRatio="xMidYMid meet">
<metadata>
Created by potrace 1.11, written by Peter Selinger 2001-2013
</metadata>
<g transform="translate(0.000000,260.000000) scale(0.100000,-0.100000)"
fill="#000000" stroke="none">
<path d="M30 1895 c0 -16 495 -1132 509 -1149 30 -34 68 -46 147 -46 l77 0
-22 24 c-13 13 -136 282 -275 598 l-252 573 -92 3 c-51 1 -92 0 -92 -3z"/>
<path d="M300 1889 c0 -5 109 -259 242 -562 171 -388 252 -562 275 -587 l31
-35 101 0 c98 0 101 1 131 30 21 21 76 137 185 390 86 198 160 364 164 368 4
4 79 -156 167 -355 107 -245 169 -374 191 -398 31 -34 34 -35 116 -38 103 -5
144 11 174 66 16 27 459 1041 490 1120 4 8 -9 12 -43 12 -69 0 -116 -15 -146
-47 -15 -17 -105 -212 -219 -475 -107 -247 -196 -448 -199 -448 -3 0 -81 174
-174 388 -249 569 -240 551 -277 566 -36 15 -70 11 -96 -13 -10 -10 -108 -225
-218 -479 -110 -254 -202 -462 -205 -462 -3 0 -92 199 -199 443 -106 243 -200
453 -208 465 -26 42 -87 62 -190 62 -59 0 -93 -4 -93 -11z"/>
</g>
</svg>
